<?xml version="1.0" encoding="UTF-8" standalone="no"?>
<!-- Generator: Adobe Illustrator 14.0.0, SVG Export Plug-In . SVG Version: 6.00 Build 43363)  -->

<svg
   xmlns:dc="http://purl.org/dc/elements/1.1/"
   xmlns:cc="http://creativecommons.org/ns#"
   xmlns:rdf="http://www.w3.org/1999/02/22-rdf-syntax-ns#"
   xmlns:svg="http://www.w3.org/2000/svg"
   xmlns="http://www.w3.org/2000/svg"
   xmlns:sodipodi="http://sodipodi.sourceforge.net/DTD/sodipodi-0.dtd"
   xmlns:inkscape="http://www.inkscape.org/namespaces/inkscape"
   version="1.1"
   id="Layer_2"
   x="0px"
   y="0px"
   width="2.125in"
   height="2.125in"
   viewBox="0 0 191.24998 191.24998"
   enable-background="new 0 0 216 216"
   xml:space="preserve"
   inkscape:version="0.91 r13725"
   sodipodi:docname="Noisebridge_logo_scaled_angled.svg"><metadata
     id="metadata149"><rdf:RDF><cc:Work
         rdf:about=""><dc:format>image/svg+xml</dc:format><dc:type
           rdf:resource="http://purl.org/dc/dcmitype/StillImage" /><dc:title></dc:title></cc:Work></rdf:RDF></metadata><defs
     id="defs147" /><sodipodi:namedview
     pagecolor="#ffffff"
     bordercolor="#666666"
     borderopacity="1"
     objecttolerance="10"
     gridtolerance="10"
     guidetolerance="10"
     inkscape:pageopacity="0"
     inkscape:pageshadow="2"
     inkscape:window-width="1360"
     inkscape:window-height="702"
     id="namedview145"
     showgrid="false"
     units="in"
     fit-margin-top="0"
     fit-margin-left="0"
     fit-margin-right="0"
     fit-margin-bottom="0"
     inkscape:zoom="2.75"
     inkscape:cx="38.614421"
     inkscape:cy="121.02874"
     inkscape:window-x="1920"
     inkscape:window-y="27"
     inkscape:window-maximized="1"
     inkscape:current-layer="layer7" /><g
     inkscape:groupmode="layer"
     id="layer4"
     inkscape:label="Logo"
     style="display:inline"
     transform="translate(28.605045,29.140428)"><path
       d="M 66.66163,-9.4120777e-6 C 65.511644,5.2467915e-5 64.368436,0.02927329 63.232702,0.08695368 62.096969,0.14463407 60.96871,0.23077395 59.848627,0.34467396 58.728544,0.45857385 57.616637,0.60023393 56.513603,0.76895451 55.41057,0.93767509 54.316412,1.1334563 53.231828,1.3555986 c -1.084585,0.2221423 -2.159595,0.4706458 -3.224332,0.7448108 -1.064737,0.2741652 -2.119201,0.5739919 -3.162692,0.8987808 -1.04349,0.324789 -2.076007,0.6745403 -3.096852,1.0485541 -1.020845,0.374014 -2.030017,0.7722905 -3.026818,1.1941305 -0.9968,0.4218398 -1.981228,0.8672431 -2.952586,1.3355101 -0.971356,0.468267 -1.929641,0.9593978 -2.874156,1.4726928 -0.944514,0.5132951 -1.875258,1.0487545 -2.79153,1.6056784 -0.916274,0.5569259 -1.818077,1.1353139 -2.704709,1.7344689 -0.886632,0.599155 -1.758095,1.219075 -2.613688,1.85906 -0.855593,0.639987 -1.695317,1.300038 -2.518472,1.979457 -0.823155,0.679419 -1.629741,1.378203 -2.419059,2.095655 -0.789317,0.717452 -1.561366,1.453572 -2.315447,2.207658 -0.754081,0.754087 -1.490194,1.526139 -2.207641,2.315461 -0.717446,0.789322 -1.416225,1.595913 -2.095637,2.419072 -0.679413,0.823158 -1.339457,1.662886 -1.979436,2.518483 -0.639979,0.855597 -1.25989,1.727063 -1.859037,2.613697 -0.599147,0.886636 -1.177528,1.788441 -1.7344432,2.704717 -0.5569151,0.916275 -1.0923653,1.847021 -1.6056507,2.791537 -0.5132854,0.944517 -1.004406,1.902803 -1.4726624,2.874161 -0.4682564,0.971359 -0.9136485,1.955789 -1.3354768,2.95259 -0.4218283,0.996801 -0.8200927,2.005975 -1.194094,3.026821 C 3.6734076,44.76944 3.3236695,45.801958 2.998894,46.845448 2.6741187,47.888939 2.374306,48.943403 2.1001555,50.00814 1.8260051,51.072878 1.5775169,52.147889 1.3553903,53.232474 1.1332639,54.317059 0.93749895,55.411217 0.76879527,56.51425 0.60009159,57.617283 0.45844911,58.729192 0.34456732,59.849275 0.23068543,60.969357 0.14456423,62.097615 0.08690319,63.233347 0.0292421,64.369081 4.1199995e-5,65.512291 0,66.662276 c 4.0219995e-5,1.149986 0.0292408,2.293194 0.08690219,3.428928 0.05766139,1.135734 0.14378354,2.263992 0.25766703,3.384075 0.11388349,1.120083 0.25552817,2.231991 0.42423475,3.335024 0.16870648,1.103034 0.36447473,2.197194 0.58660523,3.281777 0.2221306,1.084585 0.4706232,2.159596 0.7447786,3.224334 0.2741554,1.064737 0.5739736,2.119202 0.8987547,3.162693 0.3247814,1.043491 0.6745259,2.076009 1.0485339,3.096855 0.3740081,1.020846 0.7722798,2.03002 1.1941157,3.026821 0.4218358,0.996802 0.8672357,1.981232 1.3355002,2.95259 0.4682646,0.971358 0.9593937,1.929645 1.4726879,2.874161 0.5132942,0.944519 1.0487534,1.875276 1.6056786,2.791546 0.5569252,0.91628 1.1353152,1.81808 1.7344712,2.70471 0.599158,0.88663 1.219079,1.7581 1.859069,2.6137 0.639989,0.8556 1.300044,1.69533 1.979466,2.51848 0.679422,0.82317 1.378211,1.62976 2.095667,2.41908 0.717457,0.78932 1.45358,1.56137 2.207672,2.31546 0.754093,0.75408 1.526152,1.4902 2.315481,2.20766 0.789328,0.71745 1.595925,1.41623 2.41909,2.09565 0.823165,0.67942 1.662899,1.33947 2.518502,1.97945 0.855603,0.63999 1.727075,1.25992 2.613717,1.85907 0.886644,0.59915 1.788457,1.17754 2.70474,1.73447 0.916282,0.55692 1.847036,1.09237 2.791559,1.60567 0.944524,0.5133 1.902817,1.00442 2.874181,1.47269 0.971365,0.46826 1.955802,0.91367 2.95261,1.33551 0.996807,0.42184 2.005987,0.82012 3.026839,1.19413 1.020852,0.37402 2.053376,0.72377 3.096873,1.04856 1.043497,0.32479 2.097967,0.62461 3.16271,0.89877 1.064743,0.27417 2.139758,0.52267 3.224347,0.74482 1.084589,0.22214 2.178751,0.41792 3.281788,0.58664 1.103036,0.16873 2.214947,0.31039 3.335033,0.42428 1.120085,0.1139 2.248345,0.20004 3.384079,0.25772 1.135735,0.0577 2.278946,0.0869 3.428931,0.0869 1.149965,-6e-5 2.293154,-0.0293 3.428868,-0.0869 1.135715,-0.0577 2.263953,-0.14383 3.384018,-0.25773 1.120066,-0.1139 2.231955,-0.25556 3.334973,-0.42429 1.103016,-0.16872 2.197159,-0.36451 3.281727,-0.58665 1.08457,-0.22215 2.159565,-0.47066 3.224289,-0.74483 1.064722,-0.27417 2.119172,-0.574 3.16265,-0.89879 1.043477,-0.3248 2.075982,-0.67456 3.096816,-1.04858 1.020833,-0.37402 2.029995,-0.7723 3.026785,-1.19415 0.99679,-0.42185 1.981209,-0.86726 2.952557,-1.33553 0.971348,-0.46827 1.929625,-0.9594 2.874132,-1.4727 0.944506,-0.5133 1.875251,-1.04877 2.791511,-1.60569 0.91627,-0.55694 1.81807,-1.13533 2.70469,-1.73449 0.88664,-0.59916 1.75809,-1.21909 2.61368,-1.85908 0.85559,-0.64 1.69532,-1.30005 2.51846,-1.97948 0.82316,-0.67943 1.62974,-1.37822 2.41906,-2.09567 0.78931,-0.71746 1.56136,-1.45359 2.31544,-2.20768 0.75408,-0.75409 1.4902,-1.52615 2.20764,-2.31548 0.71745,-0.78933 1.41623,-1.59592 2.09564,-2.41909 0.67942,-0.82315 1.33947,-1.66289 1.97946,-2.51849 0.63997,-0.8556 1.2599,-1.72706 1.85905,-2.6137 0.59915,-0.88663 1.17753,-1.78844 1.73446,-2.70472 0.55692,-0.91627 1.09238,-1.847017 1.60567,-2.791537 0.5133,-0.944516 1.00441,-1.902802 1.47267,-2.874158 0.46827,-0.971357 0.91368,-1.955783 1.33551,-2.952582 0.42184,-0.996797 0.82012,-2.005966 1.19413,-3.026807 0.37401,-1.02084 0.72376,-2.053351 1.04855,-3.096835 0.32479,-1.043484 0.62462,-2.097939 0.89878,-3.162668 0.27416,-1.064729 0.52266,-2.139729 0.74481,-3.224303 0.22215,-1.084573 0.41792,-2.17872 0.58664,-3.281739 0.16872,-1.10302 0.31038,-2.214914 0.42428,-3.334981 0.1139,-1.120068 0.20004,-2.248308 0.25772,-3.384023 0.0577,-1.135716 0.0869,-2.278906 0.0869,-3.428871 -1e-4,-1.149985 -0.0293,-2.293195 -0.087,-3.428929 -0.0577,-1.135732 -0.14388,-2.26399 -0.25781,-3.384072 -0.11393,-1.120083 -0.25561,-2.231992 -0.42435,-3.335025 -0.16875,-1.103033 -0.36455,-2.197191 -0.58672,-3.281776 -0.22216,-1.084584 -0.47068,-2.159596 -0.74486,-3.224334 -0.27419,-1.064737 -0.57403,-2.119201 -0.89884,-3.162692 -0.3248,-1.04349 -0.67457,-2.076008 -1.0486,-3.096854 -0.37403,-1.020846 -0.77232,-2.03002 -1.19417,-3.026821 -0.42185,-0.996801 -0.86727,-1.981231 -1.33554,-2.95259 -0.46828,-0.971357 -0.95941,-1.929644 -1.47271,-2.874161 -0.51331,-0.944516 -1.04877,-1.875262 -1.6057,-2.791537 -0.55694,-0.916276 -1.13534,-1.818081 -1.73449,-2.704717 -0.59916,-0.886633 -1.21909,-1.758099 -1.85908,-2.613695 -0.63998,-0.855597 -1.30003,-1.695324 -1.97945,-2.518483 -0.67943,-0.823159 -1.37821,-1.62975 -2.09566,-2.419073 -0.71745,-0.789322 -1.45357,-1.561375 -2.20765,-2.315462 -0.75409,-0.754085 -1.52614,-1.490204 -2.31546,-2.207656 -0.78931,-0.717452 -1.5959,-1.416236 -2.41905,-2.095655 -0.82316,-0.679419 -1.66287,-1.339471 -2.51847,-1.979457 -0.85559,-0.639986 -1.72705,-1.259906 -2.61367,-1.859061 -0.88662,-0.599155 -1.78843,-1.177543 -2.70469,-1.7344689 C 100.30363,9.0988328 99.372905,8.5633734 98.428392,8.0500782 97.483886,7.5367831 96.525611,7.0456523 95.554266,6.5773853 94.58292,6.1091183 93.598503,5.6637151 92.601715,5.2418753 91.604927,4.8200353 90.595767,4.4217588 89.574937,4.0477448 88.554105,3.6737309 87.521603,3.3239797 86.478127,2.9991907 85.434652,2.6744017 84.380204,2.374575 83.315483,2.1004098 82.250762,1.8262448 81.175769,1.5777412 80.091201,1.3555989 79.006634,1.1334566 77.912494,0.93767549 76.809479,0.76895481 75.706464,0.60023423 74.594575,0.45857415 73.474511,0.34467416 72.354448,0.23077418 71.22621,0.14463424 70.090497,0.08695382 68.954784,0.0292734 67.811594,5.2497915e-5 66.66163,-9.4120777e-6 Z M 111.45709,111.45841 c -0.35825,0.35815 -0.72075,0.71203 -1.0874,1.06156 -0.36667,0.34953 -0.7375,0.69471 -1.11242,1.03546 -0.37491,0.34075 -0.75391,0.67706 -1.13691,1.00886 -0.38299,0.3318 -0.77,0.65908 -1.16093,0.98177 -0.39092,0.32269 -0.78576,0.64078 -1.18443,0.95419 -0.39868,0.3134 -0.8012,0.62213 -1.20747,0.9261 -0.40628,0.30396 -0.81631,0.60317 -1.23001,0.89753 -0.4137,0.29435 -0.83108,0.58386 -1.25204,0.86844 -0.42097,0.28459 -0.84553,0.56423 -1.2736,0.83888 -0.42806,0.27465 -0.859645,0.54427 -1.294645,0.80881 -0.435008,0.26453 -0.873438,0.52398 -1.315214,0.77824 -0.441776,0.25426 -0.886897,0.50335 -1.335281,0.74718 -0.448383,0.24383 -0.900029,0.4824 -1.354857,0.71563 -0.454827,0.23323 -0.912835,0.46112 -1.373941,0.68358 -0.461108,0.22245 -0.925313,0.43949 -1.392535,0.65102 -0.467222,0.21153 -0.937461,0.41755 -1.410634,0.61798 -0.473173,0.20044 -0.94928,0.39527 -1.42824,0.58444 -0.478959,0.18917 -0.960771,0.37265 -1.445353,0.5504 -0.484582,0.17773 -0.971934,0.34971 -1.461974,0.51587 -0.49004,0.16614 -0.982769,0.32644 -1.478103,0.48083 -0.495334,0.15439 -0.993275,0.30285 -1.493738,0.44531 -0.500464,0.14246 -1.003452,0.27891 -1.508882,0.40929 -0.50543,0.13037 -1.013301,0.25464 -1.523532,0.37276 -0.51023,0.11812 -1.022821,0.23007 -1.537688,0.33576 -0.514868,0.10569 -1.032012,0.20514 -1.551353,0.29825 -0.519341,0.0932 -1.040877,0.17987 -1.564526,0.26023 -0.523649,0.0804 -1.049411,0.15429 -1.577205,0.22173 -0.527794,0.0674 -1.057618,0.12838 -1.589391,0.18273 -0.531774,0.0543 -1.065497,0.10213 -1.601086,0.14325 -0.535589,0.0411 -1.073045,0.0755 -1.612286,0.10323 -0.539241,0.0277 -1.080266,0.0486 -1.622995,0.0628 -0.542728,0.0142 -1.08716,0.0214 -1.633211,0.0218 l 0,-0.13766 0,-0.13766 0,-0.13766 0,-0.13766 0,-0.13766 0,-0.13765 0,-0.13766 0,-0.13766 0,-0.13766 0,-0.13766 0,-0.13765 0,-0.13766 0,-0.13766 0,-0.13765 0,-0.13766 0,-0.13766 0,-0.13766 0,-0.13766 0,-0.13766 0,-0.13766 0,-0.13766 0,-0.13765 0,-0.13766 0,-0.13766 0,-0.13766 0,-0.13765 0,-0.13766 0,-0.13766 0,-0.13766 0,-0.13766 0,-0.13765 0,-0.13765 -0.0014,0 -0.0014,0 -0.0013,0 -0.0014,0 -0.0014,0 -0.0014,0 -0.0014,0 -0.0014,0 -0.0014,0 -0.0013,0 -0.0014,0 -0.0014,0 -0.0014,0 -0.0014,0 -0.0014,0 -0.0013,0 -0.0014,0 -0.0014,0 -0.0014,0 -0.0014,0 -0.0014,0 -0.0014,0 -0.0013,0 -0.0014,0 -0.0014,0 -0.0014,0 -0.0014,0 -0.0014,0 -0.0013,0 -0.0014,0 -0.0014,0 -0.0014,0 c -0.508473,-4e-5 -1.015425,-0.007 -1.52078,-0.0193 -0.505354,-0.0129 -1.009111,-0.032 -1.511195,-0.0575 -0.502085,-0.0254 -1.002495,-0.0572 -1.501158,-0.0951 -0.498663,-0.0379 -0.995579,-0.0821 -1.49067,-0.1324 -0.495091,-0.0503 -0.988358,-0.1067 -1.479727,-0.16916 -0.491369,-0.0625 -0.980837,-0.13098 -1.468332,-0.20547 -0.487495,-0.0744 -0.973016,-0.15495 -1.456485,-0.24131 -0.483471,-0.0863 -0.96489,-0.17861 -1.444185,-0.27669 -0.479293,-0.0981 -0.956462,-0.20198 -1.431431,-0.31163 -0.474967,-0.10965 -0.947734,-0.22503 -1.418224,-0.3461 -0.47049,-0.12106 -0.938703,-0.24778 -1.404565,-0.3801 -0.465862,-0.13231 -0.929371,-0.27022 -1.390454,-0.41364 -0.461082,-0.14342 -0.919738,-0.29236 -1.37589,-0.44674 -0.456152,-0.15437 -0.909801,-0.31419 -1.360872,-0.47937 -0.451069,-0.16517 -0.899561,-0.33572 -1.3454,-0.51154 -0.445838,-0.17582 -0.889023,-0.35693 -1.329478,-0.54324 -0.440455,-0.18632 -0.878181,-0.37785 -1.313102,-0.5745 -0.434921,-0.19665 -0.867037,-0.39845 -1.296273,-0.60529 -0.429237,-0.20684 -0.855592,-0.41874 -1.278992,-0.63562 -0.4234,-0.21688 -0.843844,-0.43873 -1.261258,-0.66549 -0.417413,-0.22676 -0.831795,-0.45842 -1.24307,-0.69491 -0.411275,-0.23649 -0.819444,-0.4778 -1.22443,-0.72386 -0.404986,-0.24607 -0.80679,-0.49687 -1.205338,-0.75235 -0.398546,-0.25549 -0.793835,-0.51564 -1.185791,-0.7804 -0.391955,-0.26476 -0.780577,-0.5341 -1.165791,-0.80797 -0.385214,-0.27386 -0.767021,-0.55225 -1.145343,-0.83507 -0.378323,-0.28283 -0.753161,-0.5701 -1.124439,-0.86174 -0.37128,-0.29163 -0.738999,-0.58763 -1.103082,-0.88793 -0.364082,-0.3003 -0.724532,-0.60488 -1.081269,-0.91367 -0.356739,-0.30879 -0.709768,-0.6218 -1.05901,-0.93895 -0.349242,-0.31714 -0.694699,-0.63842 -1.036294,-0.96376 -0.341596,-0.32535 -0.67933,-0.65475 -1.013127,-0.98813 -0.333632,-0.33355 -0.663283,-0.67104 -0.988878,-1.0124 -0.325595,-0.34135 -0.647133,-0.68657 -0.964538,-1.03557 -0.317405,-0.34901 -0.630677,-0.70181 -0.939738,-1.05832 -0.309061,-0.35651 -0.613912,-0.71673 -0.914477,-1.0806 -0.300565,-0.36386 -0.596843,-0.73136 -0.888758,-1.10243 -0.291915,-0.37107 -0.579465,-0.7457 -0.862576,-1.12382 -0.283111,-0.37811 -0.561781,-0.75972 -0.835935,-1.14474 -0.274153,-0.38502 -0.54379,-0.77345 -0.808834,-1.165227 -0.265059,-0.391792 -0.525529,-0.786906 -0.781332,-1.185278 -0.255801,-0.398371 -0.506934,-0.799996 -0.753318,-1.204806 -0.246385,-0.40481 -0.48802,-0.812802 -0.724827,-1.223908 C 15.295437,95.610134 15.063459,95.195915 14.83639,94.778655 14.609321,94.361395 14.387152,93.941098 14.16996,93.517842 13.952766,93.094584 13.740551,92.668367 13.53339,92.239265 13.326227,91.810162 13.124119,91.378173 12.92714,90.943376 12.730605,90.508458 12.538759,90.070851 12.352117,89.630508 12.165476,89.190166 11.984041,88.74709 11.80789,88.301354 11.632829,87.85556 11.461962,87.407164 11.296454,86.956186 11.130947,86.505207 10.970801,86.051645 10.816091,85.595574 10.66138,85.139503 10.512107,84.680923 10.368348,84.219911 10.224588,83.758899 10.086343,83.295453 9.9536878,82.829649 9.8210318,82.363846 9.6939658,81.895685 9.5725679,81.425241 9.4511689,80.954798 9.3354379,80.482071 9.2254496,80.007138 9.1154616,79.532206 9.0112173,79.055066 8.9127933,78.575794 8.8143693,78.096522 8.7217656,77.615119 8.6350589,77.131658 8.5483521,76.648199 8.4675424,76.162682 8.3927062,75.675185 8.31787,75.187688 8.2490075,74.69821 8.1861952,74.206825 8.1233831,73.715442 8.0666212,73.222151 8.0159863,72.727032 c -0.050635,-0.49512 -0.095143,-0.99207 -0.1334469,-1.490775 -0.038304,-0.498706 -0.070405,-0.999165 -0.096225,-1.501305 -0.02582,-0.50214 -0.04536,-1.00596 -0.058543,-1.511384 -0.013183,-0.505424 -0.020009,-1.012452 -0.020401,-1.521009 l 0,-2.17e-4 0,-2.17e-4 0,-2.16e-4 0,-2.16e-4 0,-2.17e-4 0,-2.16e-4 0,-2.17e-4 0,-2.17e-4 0,-2.16e-4 0,-2.16e-4 0,-2.17e-4 0,-2.17e-4 0,-2.17e-4 0,-2.15e-4 0,-2.17e-4 0,-2.17e-4 0,-2.17e-4 0,-2.16e-4 0,-2.17e-4 0,-2.16e-4 0,-2.17e-4 0,-2.16e-4 0,-2.17e-4 0,-2.17e-4 0,-2.16e-4 0,-2.16e-4 0,-2.17e-4 0,-2.17e-4 0,-2.17e-4 0,-2.15e-4 0,-2.17e-4 0,-2.17e-4 0,-0.0011 0,-0.0011 0,-0.0011 0,-0.0011 0,-0.0011 0,-0.0011 0,-0.0011 0,-0.0011 0,-0.0011 0,-0.0011 0,-0.0011 0,-0.0011 0,-0.0011 0,-0.0011 0,-0.0011 0,-0.0011 0,-0.0011 0,-0.0011 0,-0.0011 0,-0.0011 0,-0.0011 0,-0.0011 0,-0.0011 0,-0.0011 0,-0.0011 0,-0.0011 0,-0.0011 0,-0.0011 0,-0.0011 0,-0.0011 0,-0.0011 0,-0.0011 c 0,-0.02483 1.48e-5,-0.04965 4.45e-5,-0.07446 2.97e-5,-0.02482 7.43e-5,-0.04963 1.338e-4,-0.07444 5.95e-5,-0.02481 1.338e-4,-0.04961 2.232e-4,-0.07441 8.93e-5,-0.0248 1.936e-4,-0.04959 3.129e-4,-0.07438 1.193e-4,-0.02479 2.539e-4,-0.04957 4.036e-4,-0.07435 1.496e-4,-0.02478 3.144e-4,-0.04956 4.944e-4,-0.07433 1.799e-4,-0.02477 3.749e-4,-0.04954 5.85e-4,-0.0743 2.1e-4,-0.02476 4.352e-4,-0.04952 6.752e-4,-0.07427 2.401e-4,-0.02475 4.95e-4,-0.0495 7.65e-4,-0.07425 2.699e-4,-0.02475 5.548e-4,-0.04949 8.549e-4,-0.07422 3.001e-4,-0.02474 6.154e-4,-0.04947 9.459e-4,-0.07419 3.306e-4,-0.02473 6.765e-4,-0.04945 0.00104,-0.07417 3.614e-4,-0.02472 7.382e-4,-0.04943 0.00113,-0.07414 3.923e-4,-0.02471 8e-4,-0.04942 0.00123,-0.07412 4.233e-4,-0.0247 8.619e-4,-0.0494 0.00132,-0.07409 4.541e-4,-0.02469 9.238e-4,-0.04938 0.00141,-0.07407 4.851e-4,-0.02468 9.857e-4,-0.04936 0.0015,-0.07404 5.161e-4,-0.02468 0.00105,-0.04935 0.00159,-0.07401 5.47e-4,-0.02467 0.00111,-0.04933 0.00168,-0.07399 5.779e-4,-0.02466 0.00117,-0.04931 0.00178,-0.07396 6.089e-4,-0.02465 0.00124,-0.0493 0.00187,-0.07394 6.409e-4,-0.02464 0.0013,-0.04928 0.00197,-0.07391 6.726e-4,-0.02463 0.00136,-0.04926 0.00207,-0.07389 7.04e-4,-0.02463 0.00143,-0.04925 0.00216,-0.07387 7.351e-4,-0.02462 0.00149,-0.04923 0.00226,-0.07384 7.671e-4,-0.02461 0.00155,-0.04921 0.00235,-0.07382 7.989e-4,-0.0246 0.00161,-0.0492 0.00245,-0.0738 8.302e-4,-0.02459 0.00167,-0.04918 0.00253,-0.07377 8.613e-4,-0.02458 0.00174,-0.04917 0.00263,-0.07375 8.944e-4,-0.02458 0.0018,-0.04915 0.00273,-0.07372 9.268e-4,-0.02457 0.00187,-0.04914 0.00283,-0.07371 9.585e-4,-0.02456 0.00193,-0.04912 0.00292,-0.07368 l -0.1374106,-0.0055 -0.1374105,-0.0055 -0.1374105,-0.0055 -0.1374106,-0.0055 -0.1374105,-0.0054 -0.1374107,-0.0054 -0.1374107,-0.0054 -0.1374106,-0.0054 -0.1374106,-0.0054 -0.1374107,-0.0054 -0.1374105,-0.0054 -0.1374106,-0.0054 -0.1374107,-0.0054 -0.1374107,-0.0054 -0.1374106,-0.0054 -0.1374106,-0.0054 -0.1374105,-0.0054 -0.1374107,-0.0054 -0.1374106,-0.0054 -0.1374107,-0.0054 -0.1374106,-0.0054 -0.1374107,-0.0054 -0.1374105,-0.0054 -0.1374106,-0.0054 -0.1374106,-0.0054 -0.1374106,-0.0054 -0.1374107,-0.0054 -0.1374107,-0.0054 -0.1374105,-0.0054 -0.1374107,-0.0054 -0.1374106,-0.0054 -0.1374106,-0.0054 c 0.020367,-0.514975 0.04688,-1.028366 0.079468,-1.540101 0.032588,-0.511737 0.071251,-1.021819 0.1159189,-1.530176 0.044668,-0.508356 0.095339,-1.014986 0.1519434,-1.519821 0.056604,-0.504836 0.119142,-1.007873 0.1875416,-1.509045 0.0684,-0.501172 0.1426613,-1.000476 0.222714,-1.497842 0.080052,-0.497366 0.1658964,-0.992795 0.2574601,-1.486215 0.091564,-0.49342 0.1888474,-0.984829 0.2917801,-1.474162 0.1029291,-0.488198 0.2115108,-0.97545 0.3256706,-1.460552 0.1141597,-0.4851 0.2338973,-0.968051 0.359142,-1.448781 0.1252445,-0.480729 0.2559962,-0.959238 0.3921838,-1.435455 0.1361875,-0.476216 0.2778111,-0.95014 0.4247997,-1.421701 0.1469883,-0.471562 0.2993418,-0.94076 0.4569891,-1.407525 0.1576473,-0.466763 0.3205886,-0.931095 0.4887528,-1.392921 0.1681641,-0.461826 0.3415512,-0.921147 0.5200902,-1.377894 0.1785389,-0.456746 0.3622297,-0.910918 0.5510015,-1.362442 0.1887717,-0.451524 0.3826244,-0.900403 0.5814869,-1.346564 0.1988624,-0.446161 0.4027348,-0.889605 0.611546,-1.330262 0.208811,-0.440656 0.4225609,-0.878524 0.6411791,-1.313534 0.218618,-0.435009 0.442104,-0.867159 0.670387,-1.29638 0.228282,-0.429222 0.461362,-0.855513 0.699166,-1.278804 0.237805,-0.423291 0.480337,-0.843582 0.727523,-1.260802 0.247186,-0.417219 0.499025,-0.831368 0.75545,-1.242373 0.256425,-0.411007 0.517432,-0.818871 0.782953,-1.223522 0.265521,-0.404651 0.535555,-0.806089 0.81003,-1.204244 0.274476,-0.398154 0.553392,-0.793025 0.836681,-1.184541 0.283287,-0.391516 0.570947,-0.779677 0.862905,-1.164414 0.291959,-0.384736 0.588216,-0.766046 0.888704,-1.143861 0.300487,-0.377814 0.605202,-0.752132 0.914075,-1.122883 0.308873,-0.370751 0.621904,-0.737935 0.939022,-1.101481 0.317117,-0.363547 0.638322,-0.723455 0.963542,-1.079655 0.32522,-0.356199 0.654455,-0.708689 0.987636,-1.057401 0.333179,-0.348711 0.670304,-0.693642 1.011303,-1.034723 0.358538,-0.358476 0.721331,-0.712677 1.088299,-1.062518 0.366967,-0.349842 0.738107,-0.695325 1.113338,-1.036366 0.375231,-0.341041 0.754552,-0.677641 1.137883,-1.009717 0.38333,-0.332075 0.770669,-0.659625 1.161933,-0.982569 0.391265,-0.322944 0.786456,-0.64128 1.185492,-0.954926 0.399034,-0.313646 0.801914,-0.622602 1.208554,-0.926787 0.40664,-0.304183 0.817041,-0.603594 1.231123,-0.898149 0.414081,-0.294554 0.831841,-0.584254 1.253199,-0.869015 0.421358,-0.28476 0.846312,-0.564583 1.274781,-0.839384 0.428469,-0.274801 0.860454,-0.544581 1.29587,-0.809256 0.435417,-0.264676 0.874265,-0.524248 1.316464,-0.778633 0.442198,-0.254385 0.887748,-0.503583 1.336564,-0.747511 0.448817,-0.243928 0.900901,-0.482588 1.356171,-0.715894 0.45527,-0.233305 0.913725,-0.4612609 1.375284,-0.6837788 0.461561,-0.223625 0.926223,-0.4407081 1.393906,-0.6522734 0.467683,-0.2115652 0.938387,-0.4176123 1.412029,-0.6180586 0.473643,-0.2004462 0.950223,-0.3952914 1.42966,-0.5844531 0.479437,-0.1891617 0.961732,-0.3726398 1.446799,-0.5503513 0.485067,-0.1777114 0.972909,-0.3496566 1.463441,-0.5157524 0.490533,-0.1660959 0.983758,-0.3263424 1.479593,-0.4806567 0.495834,-0.1543144 0.994278,-0.3026968 1.495249,-0.4450643 0.500971,-0.1423674 1.004469,-0.2787198 1.510411,-0.4089747 0.505944,-0.1302548 1.014331,-0.2544119 1.525081,-0.3723885 0.51075,-0.1179767 1.023862,-0.2297728 1.539255,-0.3353056 0.515393,-0.1055329 1.033065,-0.2048024 1.552936,-0.2977259 0.519871,-0.092923 1.04194,-0.1795007 1.566124,-0.2596492 0.524185,-0.080148 1.050485,-0.153868 1.578818,-0.2210757 0.528333,-0.067208 1.058699,-0.1279039 1.591017,-0.1820055 0.532318,-0.054101 1.066587,-0.1016088 1.602724,-0.1424385 0.536138,-0.04083 1.074143,-0.074983 1.613935,-0.1023746 0.539792,-0.027392 1.081371,-0.048025 1.624654,-0.061814 0.543283,-0.01379 1.08827,-0.020735 1.634879,-0.020756 0.546609,2.07e-5 1.091595,0.00697 1.634876,0.020756 0.543283,0.01379 1.084859,0.034421 1.624649,0.061814 0.53979,0.027392 1.077793,0.061544 1.613926,0.1023746 0.536134,0.04083 1.070398,0.088337 1.602711,0.1424384 0.532313,0.054102 1.062675,0.1147977 1.591004,0.1820055 0.528328,0.067208 1.054623,0.1409273 1.578801,0.2210758 0.524179,0.080148 1.046242,0.1667257 1.566107,0.2596491 0.519865,0.092923 1.037532,0.192193 1.552918,0.2977259 0.515385,0.1055327 1.028491,0.2173289 1.539234,0.3353055 0.510743,0.1179766 1.019124,0.2421338 1.525059,0.3723887 0.505937,0.1302548 1.009427,0.2666073 1.510392,0.4089747 0.500964,0.1423675 0.9994,0.2907499 1.495228,0.4450642 0.495827,0.1543144 0.989045,0.3145609 1.479572,0.4806567 0.490527,0.1660959 0.978362,0.338041 1.463422,0.5157524 0.485062,0.1777115 0.967349,0.3611895 1.44678,0.5503512 0.479432,0.1891617 0.956007,0.3840069 1.429645,0.5844532 0.473636,0.2004462 0.944336,0.4064933 1.412014,0.6180584 0.467678,0.2115653 0.932336,0.4286487 1.393891,0.6511677 0.461555,0.2225179 0.920007,0.4504728 1.375274,0.6837788 0.455268,0.233306 0.90735,0.471966 1.356165,0.715894 0.448815,0.243928 0.894363,0.493126 1.336561,0.747511 0.442198,0.254384 0.881043,0.513957 1.316466,0.778632 0.43541,0.264676 0.867405,0.534456 1.295875,0.809257 0.42847,0.274801 0.85343,0.554623 1.27479,0.839384 0.42137,0.284761 0.83913,0.57446 1.25321,0.869015 0.41409,0.294555 0.82451,0.593966 1.23115,0.898149 0.40665,0.304183 0.80953,0.61314 1.20858,0.926786 0.39905,0.313646 0.79425,0.631983 1.18552,0.954927 0.39128,0.322942 0.77863,0.650492 1.16198,0.982568 0.38334,0.332075 0.76267,0.668675 1.13792,1.009716 0.37524,0.341042 0.7464,0.686525 1.11339,1.036367 0.36698,0.349842 0.7298,0.704043 1.08835,1.062519 0.35846,0.358559 0.71265,0.721372 1.06246,1.088357 0.34983,0.366985 0.6953,0.738142 1.03632,1.113389 0.34103,0.375247 0.67761,0.754583 1.00968,1.137927 0.33206,0.383344 0.65959,0.770695 0.98253,1.161972 0.32293,0.391275 0.64126,0.786476 0.9549,1.185521 0.31364,0.399044 0.62258,0.801931 0.92675,1.208581 0.30418,0.406648 0.60359,0.817057 0.89813,1.231145 0.29456,0.414088 0.58425,0.831855 0.869,1.253218 0.28476,0.421363 0.56458,0.846323 0.83938,1.274795 0.2748,0.428473 0.54457,0.860461 0.80925,1.29588 0.26468,0.43542 0.52425,0.874271 0.77864,1.316471 0.25438,0.442201 0.50358,0.887752 0.74751,1.33657 0.24392,0.44882 0.48258,0.900905 0.71589,1.356176 0.23332,0.45527 0.46128,0.913726 0.6838,1.375285 0.22252,0.461559 0.43961,0.92622 0.65118,1.393903 0.21156,0.467683 0.41762,0.938385 0.61807,1.412028 0.20045,0.473643 0.39529,0.950225 0.58446,1.429662 0.18917,0.479437 0.37265,0.961731 0.55036,1.446799 0.17773,0.485067 0.34968,0.972909 0.51578,1.463442 0.16611,0.490533 0.32636,0.983759 0.48068,1.479594 0.15432,0.495836 0.30271,0.994281 0.44508,1.495254 0.14237,0.500972 0.27874,1.004474 0.409,1.510419 0.13026,0.505945 0.25442,1.014336 0.37241,1.52509 0.11798,0.510754 0.22978,1.023871 0.33532,1.539269 0.10555,0.515398 0.20481,1.033076 0.29775,1.552952 0.093,0.519878 0.17951,1.041954 0.25966,1.566147 0.0802,0.524192 0.15388,1.050501 0.22109,1.578844 0.0672,0.528342 0.12792,1.05872 0.18202,1.591049 0.054,0.532329 0.10161,1.06661 0.14245,1.602761 0.0408,0.536151 0.0749,1.074171 0.10239,1.613978 0.0274,0.539809 0.048,1.081404 0.0618,1.624705 0.0138,0.543301 0.0207,1.088307 0.0208,1.634937 -2e-5,0.546629 -0.007,1.091635 -0.0208,1.634936 -0.0138,0.543301 -0.0344,1.084898 -0.0618,1.624706 -0.0274,0.539807 -0.0616,1.077829 -0.10239,1.613978 -0.0409,0.536152 -0.0883,1.070433 -0.14245,1.602762 -0.0541,0.532329 -0.11481,1.062705 -0.18202,1.591048 -0.0672,0.528344 -0.14094,1.054652 -0.22109,1.578845 -0.0802,0.524192 -0.16673,1.046268 -0.25966,1.566145 -0.093,0.519878 -0.19221,1.037557 -0.29775,1.552955 -0.10554,0.515396 -0.21734,1.028513 -0.33532,1.539267 -0.11799,0.510754 -0.24215,1.019145 -0.37241,1.525091 -0.13026,0.505946 -0.26663,1.009446 -0.409,1.510419 -0.14237,0.500973 -0.29076,0.999418 -0.44508,1.495254 -0.15432,0.495836 -0.31457,0.989062 -0.48068,1.479596 -0.1661,0.490534 -0.33805,0.978375 -0.51577,1.463442 -0.17772,0.485068 -0.36119,0.967362 -0.55036,1.446799 -0.18917,0.479437 -0.38402,0.956019 -0.58447,1.429661 -0.20046,0.473642 -0.40651,0.944345 -0.61808,1.412027 -0.21156,0.467683 -0.42865,0.932346 -0.65117,1.393905 -0.22252,0.461559 -0.45048,0.920016 -0.6838,1.375287 -0.2333,0.455271 -0.47197,0.907357 -0.71589,1.356174 -0.24393,0.448817 -0.49313,0.894367 -0.74752,1.336568 -0.25438,0.442202 -0.51395,0.881049 -0.77863,1.316472 -0.26468,0.43542 -0.53445,0.867417 -0.80925,1.295887 -0.2748,0.42848 -0.55462,0.85344 -0.83938,1.2748 -0.28475,0.42137 -0.57444,0.83913 -0.869,1.25321 -0.29454,0.4141 -0.59395,0.82451 -0.89813,1.23116 -0.30417,0.40664 -0.61312,0.80953 -0.92675,1.20857 -0.31365,0.39905 -0.63197,0.79425 -0.9549,1.18552 -0.32293,0.39128 -0.65047,0.77864 -0.98253,1.16198 -0.33206,0.38335 -0.66865,0.76268 -1.00968,1.13793 -0.34102,0.37524 -0.68649,0.7464 -1.03632,1.11339 -0.34981,0.36698 -0.704,0.7298 -1.06246,1.08835 z"
       id="path141"
       inkscape:connector-curvature="0"
       sodipodi:nodetypes="cssssssssssssssssssssssssssssssscssssssssssssssssssssssssssssssscssssssssssssssssssssssssssssssscsssssssssssssssssssssssssssssssccssssssssssssssssssssssssssssssscccccccccccccccccccccccccccccccccccccccccccccccccccccccccccccccccssssssssssssssssssssssssssssssscsssssssssssssssssssssssssssssssccccccccccccccccccccccccccccccccccccccccccccccccccccccccccccccccsssssssssssssssssssssssssssssssscccccccccccccccccccccccccccccccccssssssssssssssssssssssssssssssscssssssssssssssssssssssssssssssscssssssssssssssssssssssssssssssscssssssssssssssssssssssssssssssscsssssssssssssssssssssssssssssssc" /><path
       d="m 114.28595,86.318318 0,-5.010997 0,-5.010995 0,-5.010996 0,-5.010997 0,-5.010995 0,-5.010996 0,-5.010996 0,-5.010997 -0.45604,0.323644 -0.45604,0.323645 -0.45604,0.323644 -0.45603,0.323644 -0.45605,0.323644 -0.45604,0.323644 -0.45604,0.323645 -0.45604,0.323644 -1.24348,0.882531 -1.24349,0.882531 -1.24349,0.882531 -1.24348,0.882531 -1.24349,0.882531 -1.24348,0.882531 -1.24349,0.88253 -1.24348,0.882531 -0.27849,0 -0.2785,0 -0.278495,0 -0.27849,0 -0.2785,0 -0.278497,0 -0.278491,0 -0.278495,0 0,-1.706457 0,-1.706457 0,-1.706458 0,-1.706458 0,-1.706458 0,-1.706456 0,-1.706458 0,-1.706458 c 8.3e-5,-0.290216 -0.01476,-0.577283 -0.04378,-0.860423 -0.02902,-0.28314 -0.07221,-0.562351 -0.12881,-0.836852 -0.0566,-0.274501 -0.126618,-0.544293 -0.209288,-0.808592 -0.08267,-0.2643 -0.177995,-0.523108 -0.285216,-0.775643 C 97.687477,38.694045 97.56836,38.447783 97.438105,38.208576 97.307849,37.969369 97.166455,37.737217 97.014683,37.512901 96.86291,37.288585 96.700758,37.072105 96.528984,36.864243 96.35721,36.656381 96.175815,36.457137 95.985557,36.267292 95.795712,36.077035 95.596468,35.89564 95.388606,35.723866 95.180744,35.552092 94.964264,35.38994 94.739949,35.238167 94.515632,35.086395 94.28348,34.945001 94.044274,34.814746 93.805067,34.684491 93.558805,34.565374 93.30627,34.458153 c -0.252535,-0.107221 -0.511343,-0.202546 -0.775642,-0.285216 -0.264299,-0.08268 -0.534091,-0.152686 -0.808592,-0.209289 -0.274502,-0.0566 -0.553713,-0.09979 -0.836854,-0.128811 -0.28314,-0.02902 -0.57021,-0.04387 -0.860425,-0.04379 l -1.403861,0 -1.403859,0 -1.403862,0 -1.40386,0 -1.403861,0 -1.403862,0 -1.40386,0 -1.40386,0 c -0.06,-0.333714 -0.132561,-0.663198 -0.217175,-0.987879 -0.08461,-0.324681 -0.181288,-0.644559 -0.289536,-0.959062 -0.108247,-0.314503 -0.228069,-0.62363 -0.358978,-0.92681 -0.130909,-0.303178 -0.272907,-0.60041 -0.425504,-0.89112 -0.152599,-0.29071 -0.315799,-0.574899 -0.489114,-0.851995 -0.173318,-0.277092 -0.356748,-0.547094 -0.549808,-0.80943 -0.193059,-0.262338 -0.395748,-0.517008 -0.607578,-0.76344 -0.211831,-0.246432 -0.432805,-0.484626 -0.662436,-0.714008 -0.293929,-0.294342 -0.60224,-0.574755 -0.92376,-0.84012 -0.321519,-0.265365 -0.656246,-0.515682 -1.003008,-0.749831 -0.34676,-0.234149 -0.705554,-0.45213 -1.075206,-0.652823 -0.369651,-0.200694 -0.750162,-0.384101 -1.140353,-0.549101 -0.390193,-0.165 -0.79007,-0.311594 -1.198454,-0.43866 -0.408384,-0.127068 -0.825276,-0.234608 -1.249502,-0.321504 -0.424226,-0.08689 -0.855785,-0.153145 -1.293502,-0.197629 -0.437717,-0.04448 -0.881593,-0.0672 -1.330451,-0.06704 -0.448942,-1.61e-4 -0.892901,0.02256 -1.330699,0.06705 -0.437798,0.04449 -0.869434,0.110742 -1.293733,0.197643 -0.424299,0.0869 -0.841258,0.19445 -1.249701,0.321528 -0.408444,0.127079 -0.808373,0.273687 -1.198607,0.438706 -0.390234,0.16502 -0.770775,0.348451 -1.140445,0.549176 -0.36967,0.200724 -0.72847,0.418743 -1.075221,0.652936 -0.34675,0.234195 -0.681452,0.484564 -1.002929,0.749992 -0.321476,0.265427 -0.629726,0.545912 -0.923573,0.840337 -0.229713,0.229299 -0.450747,0.46742 -0.662622,0.71379 -0.211874,0.246368 -0.414588,0.500985 -0.607657,0.763275 -0.193069,0.26229 -0.376494,0.532254 -0.54979,0.809318 -0.173297,0.277063 -0.336466,0.561227 -0.489022,0.851917 -0.152556,0.290689 -0.294501,0.587905 -0.425351,0.891072 -0.13085,0.303168 -0.250605,0.612287 -0.35878,0.926785 -0.108176,0.314498 -0.204772,0.634374 -0.289306,0.959053 -0.08454,0.32468 -0.157005,0.654164 -0.21693,0.987878 l -1.403943,0 -1.403945,0 -1.403944,0 -1.403945,0 -1.403943,0 -1.403943,0 -1.403945,0 -1.403944,0 c -0.290215,-8.2e-5 -0.577283,0.01476 -0.860422,0.04379 -0.283138,0.02902 -0.562346,0.07221 -0.836843,0.128811 -0.274496,0.05661 -0.544279,0.126618 -0.808567,0.209289 -0.264288,0.08267 -0.523081,0.177995 -0.775595,0.285216 -0.252514,0.107221 -0.49875,0.226338 -0.737925,0.356593 -0.239174,0.130255 -0.471288,0.271649 -0.695557,0.423421 -0.22427,0.151773 -0.440696,0.313925 -0.648495,0.485699 -0.207799,0.171774 -0.406971,0.353169 -0.596733,0.543426 -0.190257,0.189845 -0.371652,0.389089 -0.543426,0.596951 -0.171774,0.207862 -0.333926,0.424342 -0.485699,0.648658 -0.151772,0.224316 -0.293166,0.456468 -0.423421,0.695675 -0.130255,0.239207 -0.249372,0.485469 -0.356593,0.738004 -0.107221,0.252534 -0.202546,0.511343 -0.285216,0.775643 -0.08267,0.264299 -0.152686,0.534091 -0.209289,0.808592 -0.0566,0.274501 -0.09979,0.553712 -0.128811,0.836852 -0.02902,0.28314 -0.04387,0.570207 -0.04378,0.860423 l 0,0.886493 0,0.886493 0,0.886492 0,0.886494 0,0.886492 0,0.886493 0,0.886492 0,0.886494 -1.879381,0.50994 -1.879383,0.509939 -1.87938,0.50994 -1.879382,0.50994 -1.879382,0.50994 -1.879381,0.50994 -1.879381,0.50994 -1.879382,0.50994 2.190645,0.650672 2.190644,0.650672 2.190644,0.650672 2.190646,0.650674 2.190643,0.650672 2.190645,0.650673 2.190644,0.650673 2.190646,0.650672 -2.148384,0.638126 -2.148384,0.638127 -2.148383,0.638126 -2.148383,0.638126 -2.148384,0.638127 -2.148383,0.638127 -2.148383,0.638125 -2.148384,0.638126 2.148384,0.638044 2.148383,0.638046 2.148383,0.638044 2.148384,0.638045 2.148383,0.638044 2.148383,0.638044 2.148384,0.638045 2.148384,0.638044 -2.148384,0.638125 -2.148384,0.638127 -2.148383,0.638125 -2.148383,0.638124 -2.148384,0.638126 -2.148383,0.638126 -2.148383,0.638125 -2.148384,0.638125 2.151934,0.639118 2.151931,0.639116 2.151933,0.639117 2.151933,0.639117 2.151932,0.639117 2.151933,0.639116 2.151932,0.639117 2.151934,0.639117 -0.314812,0.09427 -0.314813,0.09426 -0.314812,0.09426 -0.314813,0.09427 -0.314812,0.09426 -0.314813,0.09426 -0.314812,0.09426 -0.314812,0.09427 0,1.31678 0,1.316781 0,1.31678 0,1.31678 0,1.316781 0,1.316781 0,1.316779 0,1.31678 c -8.2e-5,0.290298 0.01476,0.577427 0.04378,0.860613 0.02902,0.283185 0.07221,0.562425 0.128811,0.836941 0.05661,0.274517 0.126618,0.544311 0.209289,0.808604 0.08268,0.264294 0.177995,0.523087 0.285216,0.775601 0.107221,0.252514 0.226338,0.49875 0.356593,0.73793 0.130255,0.23918 0.271649,0.471304 0.423421,0.695595 0.151773,0.224289 0.313925,0.440747 0.485699,0.648592 0.171774,0.207845 0.353169,0.40708 0.543426,0.596924 0.189844,0.190256 0.389089,0.37165 0.596951,0.543423 0.207862,0.171773 0.424342,0.333925 0.648658,0.485697 0.224316,0.151773 0.456469,0.293166 0.695675,0.423421 0.239207,0.130254 0.485469,0.249372 0.738003,0.356593 0.252535,0.107221 0.511344,0.202546 0.775643,0.285216 0.2643,0.08268 0.534092,0.152686 0.808593,0.209289 0.274501,0.05661 0.553712,0.09979 0.836852,0.128813 0.28314,0.02902 0.570207,0.04387 0.860423,0.04379 l 1.954576,0 1.954577,0 1.954576,0 1.954577,0 1.954577,0 1.954576,0 1.954576,0 1.954577,0 0,-0.288893 0,-0.288895 0,-0.288894 0,-0.288895 0,-0.288894 0,-0.288895 0,-0.288894 0,-0.288894 c 8.2e-5,-0.291205 0.01478,-0.578635 0.04343,-0.86167 0.02864,-0.283034 0.07123,-0.561672 0.127089,-0.835296 0.05585,-0.273625 0.124975,-0.542235 0.206685,-0.805211 0.08171,-0.262977 0.176007,-0.520319 0.282217,-0.77141 0.10621,-0.25109 0.224331,-0.495928 0.353688,-0.733894 0.129356,-0.237966 0.269947,-0.469061 0.421096,-0.692664 0.151148,-0.223605 0.312854,-0.439718 0.484441,-0.647722 0.171587,-0.208004 0.353054,-0.407898 0.543724,-0.599063 0.191082,-0.19067 0.390905,-0.372137 0.598846,-0.543723 0.20794,-0.171587 0.424,-0.333293 0.647558,-0.484442 0.223558,-0.151148 0.454614,-0.29174 0.692548,-0.421097 0.237934,-0.129356 0.482746,-0.247478 0.733816,-0.353688 0.251069,-0.106211 0.508397,-0.20051 0.771362,-0.282219 0.262965,-0.08171 0.531567,-0.150831 0.805186,-0.206686 0.27362,-0.05586 0.552257,-0.09844 0.83529,-0.12709 0.283032,-0.02865 0.570463,-0.04335 0.861668,-0.04343 0.291123,1.24e-4 0.578468,0.01487 0.861419,0.04355 0.28295,0.02868 0.561505,0.07131 0.835047,0.127199 0.273541,0.05589 0.542068,0.125038 0.804962,0.206772 0.262894,0.08173 0.520154,0.176049 0.771162,0.28227 0.251008,0.10622 0.495764,0.224345 0.733648,0.353695 0.237884,0.129349 0.468897,0.269924 0.692419,0.421045 0.223522,0.15112 0.439553,0.312787 0.647474,0.484321 0.207923,0.171533 0.407734,0.352934 0.598818,0.543522 0.190752,0.191165 0.372291,0.391059 0.54394,0.599063 0.171649,0.208004 0.333409,0.424117 0.484603,0.647722 0.151195,0.223603 0.291824,0.454698 0.421213,0.692664 0.129388,0.237966 0.247536,0.482804 0.353767,0.733894 0.106231,0.251091 0.200544,0.508433 0.282266,0.77141 0.08172,0.262976 0.15085,0.531586 0.20671,0.805211 0.05585,0.273624 0.09846,0.552262 0.127099,0.835296 0.02865,0.283035 0.04335,0.570465 0.04343,0.86167 l 0,0.288894 0,0.288894 0,0.288895 0,0.288894 0,0.288895 0,0.288894 0,0.288895 0,0.288893 1.954577,0 1.954577,0 1.954576,0 1.954576,0 1.954577,0 1.954577,0 1.954577,0 1.954576,0 c 0.290297,8.3e-5 0.577438,-0.01477 0.860639,-0.04379 0.283202,-0.02902 0.562465,-0.07221 0.837007,-0.128813 0.274542,-0.05661 0.544364,-0.126619 0.808684,-0.209289 0.26432,-0.08267 0.523138,-0.177995 0.775673,-0.285216 0.252535,-0.107221 0.498786,-0.226339 0.737973,-0.356593 0.239186,-0.130255 0.471307,-0.271648 0.695583,-0.423421 0.224274,-0.151772 0.440703,-0.313924 0.648504,-0.485697 0.2078,-0.171773 0.406973,-0.353167 0.596736,-0.543423 0.190258,-0.189928 0.371651,-0.389244 0.543423,-0.597169 0.171773,-0.207925 0.333925,-0.424457 0.485697,-0.648814 0.151773,-0.224358 0.293166,-0.456542 0.423421,-0.695769 0.130255,-0.239228 0.249372,-0.4855 0.356593,-0.738035 0.107221,-0.252536 0.202546,-0.511333 0.285216,-0.775613 0.08267,-0.264279 0.152686,-0.534039 0.209289,-0.808498 0.05661,-0.27446 0.09979,-0.55362 0.128813,-0.836697 0.02902,-0.283077 0.04387,-0.570073 0.04379,-0.860205 l 0,-1.706789 0,-1.706786 0,-1.706789 0,-1.706789 0,-1.706788 0,-1.706788 0,-1.706788 0,-1.706789 0.278412,0 0.278415,0 0.278408,0 0.278413,0 0.27842,0 0.278405,0 0.27842,0 0.27841,0 1.69969,1.206506 1.69969,1.206506 1.69968,1.206505 1.69969,1.206505 1.6997,1.206506 1.69968,1.206505 1.69969,1.206506 z m -10.54943,-13.156416 0,-1.721975 0,-1.721975 0,-1.721975 0,-1.721974 0,-1.721976 0,-1.721974 0,-1.721975 0,-1.721975 0.74097,-0.525871 0.74097,-0.52587 0.74098,-0.52587 0.74097,-0.52587 0.74098,-0.525871 0.74097,-0.525871 0.74097,-0.52587 0.74097,-0.52587 0,2.773717 0,2.773715 0,2.773716 0,2.773716 0,2.773715 0,2.773716 0,2.773717 0,2.773715 -0.74097,-0.52587 -0.74097,-0.525871 -0.74097,-0.52587 -0.74098,-0.525871 -0.74097,-0.52587 -0.74098,-0.525872 -0.74097,-0.52587 z m -4.622316,-1.117274 -1.174892,0 -1.174893,0 -1.174892,0 -1.174892,0 -1.174893,0 -1.174893,0 -1.174892,0 -1.174893,0 0,-1.442738 0,-1.442738 0,-1.442739 0,-1.442739 0,-1.442739 0,-1.442738 0,-1.442738 0,-1.442738 1.174893,0 1.174892,0 1.174893,0 1.174893,0 1.174892,0 1.174892,0 1.174893,0 1.174892,0 0,1.442738 0,1.442738 0,1.442738 0,1.442739 0,1.442739 0,1.442739 0,1.442738 z M 93.83883,90.32058 c -8.3e-5,0.130993 -0.0067,0.260345 -0.01977,0.387791 -0.013,0.127445 -0.03232,0.252982 -0.05767,0.376344 -0.02534,0.123363 -0.05672,0.244552 -0.09383,0.363299 -0.03712,0.118747 -0.07997,0.235053 -0.128275,0.34865 -0.04831,0.113597 -0.102068,0.224486 -0.160993,0.332399 -0.05892,0.107914 -0.123017,0.212852 -0.191985,0.314548 -0.06896,0.101697 -0.142813,0.200151 -0.221249,0.295095 -0.07844,0.09494 -0.161461,0.186381 -0.248789,0.27404 -0.08765,0.08741 -0.179095,0.170499 -0.27404,0.248979 -0.09494,0.07848 -0.193398,0.152357 -0.295095,0.22134 -0.101696,0.06898 -0.206634,0.133077 -0.314548,0.191995 -0.107914,0.05891 -0.218803,0.112664 -0.332399,0.160951 -0.113598,0.04828 -0.229903,0.09112 -0.348651,0.128202 -0.118746,0.03708 -0.239935,0.06843 -0.363298,0.09375 -0.123363,0.02532 -0.2489,0.04461 -0.376345,0.0576 -0.127445,0.01299 -0.256798,0.01966 -0.38779,0.01974 l -1.403862,0 -1.403862,0 -1.403861,0 -1.403863,0 -1.403861,0 -1.403863,0 -1.403862,0 -1.403861,0 c -0.06,-0.333797 -0.132561,-0.663353 -0.217175,-0.988097 -0.08462,-0.324743 -0.181288,-0.644673 -0.289536,-0.959217 -0.108247,-0.314544 -0.228069,-0.623703 -0.358978,-0.926902 -0.130909,-0.3032 -0.272906,-0.600442 -0.425504,-0.891153 -0.152597,-0.290709 -0.315797,-0.574889 -0.489111,-0.851965 -0.173315,-0.277075 -0.356745,-0.547047 -0.549803,-0.809343 -0.193059,-0.262295 -0.395746,-0.516915 -0.607577,-0.763285 -0.211829,-0.24637 -0.432802,-0.484492 -0.662431,-0.713792 -0.29393,-0.294258 -0.602243,-0.57461 -0.923763,-0.839929 -0.321521,-0.26532 -0.656249,-0.515607 -1.00301,-0.74974 -0.346761,-0.234133 -0.705556,-0.452112 -1.075208,-0.652812 -0.369652,-0.2007 -0.750163,-0.384122 -1.140355,-0.549142 -0.390193,-0.165022 -0.79007,-0.311641 -1.198455,-0.438735 -0.408384,-0.127094 -0.825277,-0.234663 -1.249503,-0.321585 -0.424226,-0.08692 -0.855784,-0.153195 -1.293501,-0.197697 -0.437718,-0.0445 -0.881592,-0.06723 -1.330451,-0.06706 -0.448942,-1.24e-4 -0.892901,0.02262 -1.330699,0.06713 -0.437796,0.04451 -0.869434,0.110771 -1.293732,0.197674 -0.424298,0.0869 -0.841256,0.194446 -1.2497,0.32151 -0.408445,0.127064 -0.808372,0.273649 -1.198606,0.438639 -0.390235,0.164989 -0.770776,0.348384 -1.140446,0.549064 -0.36967,0.20068 -0.728469,0.418647 -1.07522,0.652783 -0.34675,0.234136 -0.681452,0.484441 -1.002929,0.749797 -0.321476,0.265357 -0.629726,0.545764 -0.923573,0.840106 -0.22963,0.2293 -0.450604,0.467422 -0.662432,0.713792 -0.211829,0.24637 -0.414515,0.50099 -0.607569,0.763285 -0.193053,0.262296 -0.376475,0.532268 -0.549779,0.809343 -0.173302,0.277076 -0.336487,0.561256 -0.489064,0.851965 -0.152576,0.290711 -0.294547,0.587953 -0.425424,0.891153 -0.130877,0.303199 -0.25066,0.612358 -0.358861,0.926902 -0.108202,0.314544 -0.204822,0.634474 -0.289372,0.959217 -0.08456,0.324744 -0.157032,0.6543 -0.216957,0.988097 l -1.403862,0 -1.403861,0 -1.403862,0 -1.403861,0 -1.403862,0 -1.403861,0 -1.403861,0 -1.403862,0 c -0.13091,-8.3e-5 -0.26019,-0.0067 -0.387574,-0.01977 -0.127382,-0.013 -0.252869,-0.03232 -0.37619,-0.05767 -0.123322,-0.02534 -0.244479,-0.05672 -0.363206,-0.09383 -0.118727,-0.03712 -0.235022,-0.07997 -0.34862,-0.128275 -0.113597,-0.04831 -0.224496,-0.102068 -0.332431,-0.160993 -0.107934,-0.05892 -0.212903,-0.123016 -0.314641,-0.191984 -0.101737,-0.06896 -0.200242,-0.142814 -0.295248,-0.22125 -0.09501,-0.07844 -0.186513,-0.161461 -0.274255,-0.248789 -0.08733,-0.08765 -0.170355,-0.179105 -0.248791,-0.274067 -0.07844,-0.09496 -0.152282,-0.193438 -0.22125,-0.295161 -0.06897,-0.101721 -0.133059,-0.206688 -0.191985,-0.31463 -0.05892,-0.10794 -0.112686,-0.218855 -0.160993,-0.332472 -0.0483,-0.113619 -0.09116,-0.22994 -0.128275,-0.348693 -0.03712,-0.118754 -0.06849,-0.23994 -0.09383,-0.363287 -0.02534,-0.123348 -0.04466,-0.248856 -0.05767,-0.376256 -0.013,-0.127399 -0.01969,-0.256689 -0.01977,-0.3876 l 0,-0.886659 0,-0.886659 0,-0.886658 0,-0.886658 0,-0.886659 0,-0.886659 0,-0.886659 0,-0.886659 1.759284,-0.526612 1.759284,-0.526614 1.759284,-0.526613 1.759285,-0.526613 1.759283,-0.526613 1.759285,-0.526614 1.759283,-0.526612 1.759285,-0.526613 -2.144834,-0.63697 -2.144835,-0.636969 -2.144833,-0.63697 -2.144835,-0.63697 -2.144834,-0.63697 -2.144834,-0.636969 -2.144834,-0.63697 -2.144834,-0.63697 2.148383,-0.638044 2.148383,-0.638043 2.148383,-0.638044 2.148384,-0.638044 2.148384,-0.638043 2.148382,-0.638044 2.148385,-0.638044 2.148383,-0.638044 -2.148383,-0.638044 -2.148385,-0.638045 -2.148382,-0.638044 -2.148384,-0.638044 -2.148383,-0.638045 -2.148384,-0.638044 -2.148382,-0.638046 -2.148384,-0.638044 2.148384,-0.638126 2.148382,-0.638125 2.148384,-0.638126 2.148383,-0.638127 2.148384,-0.638127 2.148382,-0.638126 2.148385,-0.638127 2.148383,-0.638126 -2.106122,-0.62558 -2.106123,-0.62558 -2.106121,-0.62558 -2.106123,-0.62558 -2.106122,-0.625581 -2.106123,-0.62558 -2.106122,-0.625579 -2.106123,-0.62558 0.34329,-0.09311 0.343288,-0.09311 0.34329,-0.09311 0.343289,-0.09311 0.343289,-0.09311 0.343289,-0.09311 0.343288,-0.09311 0.343289,-0.09311 0,-1.328419 0,-1.328418 0,-1.32842 0,-1.328418 0,-1.328419 0,-1.328419 0,-1.328418 0,-1.328419 c 8.2e-5,-0.130911 0.0067,-0.260191 0.01977,-0.387574 0.013,-0.127382 0.03232,-0.252869 0.05767,-0.37619 0.02534,-0.123322 0.05672,-0.24448 0.09383,-0.363206 0.03712,-0.118727 0.07997,-0.235022 0.128275,-0.34862 0.0483,-0.113598 0.102067,-0.224496 0.160993,-0.332431 0.05893,-0.107934 0.123016,-0.212904 0.191985,-0.314641 0.06897,-0.101737 0.142814,-0.200242 0.22125,-0.295249 0.07844,-0.09501 0.161462,-0.186513 0.248791,-0.274254 0.08774,-0.08733 0.179248,-0.170356 0.274255,-0.248791 0.09501,-0.07844 0.193511,-0.152282 0.295248,-0.22125 0.101738,-0.06897 0.206707,-0.133059 0.314641,-0.191985 0.107935,-0.05892 0.218834,-0.112686 0.332431,-0.160993 0.113598,-0.04831 0.229893,-0.09116 0.34862,-0.128275 0.118727,-0.03712 0.239884,-0.06849 0.363206,-0.09383 0.123321,-0.02534 0.248808,-0.04466 0.37619,-0.05767 0.127384,-0.013 0.256664,-0.01969 0.387574,-0.01977 l 1.954577,0 1.954577,0 1.954576,0 1.954577,0 1.954576,0 1.954577,0 1.954576,0 1.954577,0 0,-0.288894 0,-0.288895 0,-0.288893 0,-0.288895 0,-0.288894 0,-0.288895 0,-0.288893 0,-0.288895 c 8.2e-5,-0.291206 0.01478,-0.578625 0.04343,-0.861641 0.02864,-0.283015 0.07123,-0.561629 0.127088,-0.835221 0.05586,-0.273594 0.124976,-0.542168 0.206686,-0.805106 0.0817,-0.262937 0.176007,-0.520239 0.282217,-0.771288 0.10621,-0.251049 0.224331,-0.495846 0.353687,-0.733774 0.129357,-0.237928 0.269948,-0.468986 0.421097,-0.69256 0.151148,-0.223572 0.312854,-0.439661 0.48444,-0.647647 0.171587,-0.207986 0.353054,-0.407869 0.543724,-0.599035 0.191083,-0.19067 0.390906,-0.372137 0.598846,-0.543725 0.207941,-0.171588 0.424001,-0.333295 0.647558,-0.484449 0.223558,-0.151154 0.454614,-0.291752 0.692548,-0.421121 0.237935,-0.129367 0.482747,-0.247505 0.733817,-0.353735 0.251069,-0.106231 0.508396,-0.200555 0.771361,-0.282296 0.262965,-0.08174 0.531567,-0.150901 0.805186,-0.206802 0.273619,-0.05591 0.552256,-0.09855 0.835289,-0.127253 0.283032,-0.02871 0.570461,-0.04348 0.861667,-0.04365 0.291123,8.2e-5 0.57847,0.01479 0.861421,0.04346 0.282952,0.02866 0.561507,0.07128 0.835049,0.127165 0.273541,0.05588 0.542068,0.125042 0.804962,0.20679 0.262893,0.08174 0.520154,0.176087 0.771161,0.282338 0.251008,0.106252 0.495764,0.224414 0.733647,0.353809 0.237884,0.129395 0.468897,0.270023 0.692418,0.421203 0.223522,0.151178 0.439553,0.31291 0.647474,0.484513 0.207921,0.171605 0.407733,0.353083 0.598817,0.543753 0.190753,0.191166 0.372292,0.39106 0.543943,0.599063 0.171649,0.208002 0.33341,0.424113 0.484605,0.647712 0.151194,0.2236 0.291824,0.454687 0.421212,0.692641 0.129389,0.237955 0.247536,0.482777 0.353766,0.733847 0.10623,0.25107 0.200544,0.508387 0.282265,0.771332 0.08173,0.262944 0.150849,0.531515 0.206708,0.805093 0.05586,0.273577 0.09846,0.552162 0.127099,0.835133 0.02865,0.282971 0.04335,0.570327 0.04343,0.861451 l 0,0.288895 0,0.288893 0,0.288895 0,0.288894 0,0.288895 0,0.288893 0,0.288895 0,0.288894 1.954577,0 1.954576,0 1.954576,0 1.954577,0 1.954577,0 1.954577,0 1.954576,0 1.954576,0 c 0.130993,8.2e-5 0.260345,0.0067 0.387791,0.01977 0.127445,0.013 0.252982,0.03231 0.376345,0.05767 0.123363,0.02534 0.244551,0.05672 0.363298,0.09383 0.118748,0.03712 0.235053,0.07997 0.34865,0.128275 0.113597,0.0483 0.224486,0.102067 0.3324,0.160993 0.107914,0.05893 0.212852,0.123016 0.314547,0.191984 0.101697,0.06897 0.200151,0.142815 0.295096,0.221251 0.09494,0.07844 0.18638,0.161462 0.27404,0.248791 0.08741,0.08774 0.170498,0.179248 0.248979,0.274254 0.07848,0.09501 0.152356,0.193512 0.221339,0.295249 0.06898,0.101737 0.133077,0.206707 0.191996,0.314641 0.05891,0.107935 0.112664,0.218833 0.16095,0.332431 0.04828,0.113598 0.09112,0.229893 0.128202,0.34862 0.03709,0.118726 0.06843,0.239883 0.09375,0.363206 0.02532,0.123321 0.04461,0.248808 0.0576,0.37619 0.01299,0.127383 0.01966,0.256663 0.01974,0.387574 l 0,1.70654 0,1.70654 0,1.70654 0,1.706541 0,1.70654 0,1.70654 0,1.706541 0,1.706539 -1.093341,0 -1.093342,0 -1.093341,0 -1.093341,0 -1.093341,0 -1.09334,0 -1.093341,0 -1.093342,0 0,2.598316 0,2.598317 0,2.598314 0,2.598316 0,2.598317 0,2.598315 0,2.598315 0,2.598317 1.093342,0 1.093341,0 1.09334,0 1.093341,0 1.093341,0 1.093341,0 1.093342,0 1.093341,0 0,1.706705 0,1.706705 0,1.706705 0,1.706706 0,1.706706 0,1.706705 0,1.706705 0,1.706705 8.3e-5,0 8.2e-5,0 8.3e-5,0 8.3e-5,0 8.3e-5,0 8.3e-5,0 8.3e-5,0 z"
       id="path143"
       inkscape:connector-curvature="0"
       sodipodi:nodetypes="cccccccccccccccccccccccccccccccccccccccccssssssscssssssscccccccccssssssscssssssscssssssscssssssscccccccccssssssscssssssscccccccccccccccccccccccccccccccccccccccccccccccccccccccccccccccccccccccccssssssscssssssscccccccccccccccccssssssscssssssscssssssscssssssscccccccccccccccccssssssscsssssssccccccccccccccccccccccccccccccccccccccccccccccccccccccccccccccccccccccccccccccccccccccccccccssssssscssssssscccccccccssssssscssssssscssssssscssssssscccccccccssssssscssssssscccccccccccccccccccccccccccccccccccccccccccccccccccccccccccccccccccccccccssssssscssssssscccccccccccccccccssssssscssssssscssssssscssssssscccccccccccccccccssssssscsssssssccccccccccccccccccccccccccccccccccccccccccccccccc" /></g><g
     inkscape:groupmode="layer"
     id="layer7"
     inkscape:label="Outline"
     style="display:inline"
     transform="translate(28.605045,29.140428)"><path
       style="color:#000000;font-style:normal;font-variant:normal;font-weight:normal;font-stretch:normal;font-size:medium;line-height:normal;font-family:sans-serif;text-indent:0;text-align:start;text-decoration:none;text-decoration-line:none;text-decoration-style:solid;text-decoration-color:#000000;letter-spacing:normal;word-spacing:normal;text-transform:none;direction:ltr;block-progression:tb;writing-mode:lr-tb;baseline-shift:baseline;text-anchor:start;white-space:normal;clip-rule:nonzero;display:inline;overflow:visible;visibility:visible;opacity:1;isolation:auto;mix-blend-mode:normal;color-interpolation:sRGB;color-interpolation-filters:linearRGB;solid-color:#000000;solid-opacity:1;fill:#000000;fill-opacity:1;fill-rule:nonzero;stroke:none;stroke-width:0.36090383;stroke-linecap:round;stroke-linejoin:round;stroke-miterlimit:4;stroke-dasharray:none;stroke-dashoffset:0;stroke-opacity:1;color-rendering:auto;image-rendering:auto;shape-rendering:auto;text-rendering:auto;enable-background:accumulate"
       d="m 67.017578,-29.140625 a 0.18046996,0.18046996 0 0 0 -0.125,0.05273 L 43.03125,-5.2265625 19.169922,18.634766 -4.6914062,42.496094 -28.552734,66.357422 a 0.18046996,0.18046996 0 0 0 0,0.253906 l 23.8613278,23.861328 23.8613282,23.861324 23.861328,23.86133 23.861328,23.86133 a 0.18046996,0.18046996 0 0 0 0.25586,0 L 91.007812,138.19531 114.86914,114.33398 138.73047,90.472656 162.5918,66.611328 a 0.18046996,0.18046996 0 0 0 0,-0.253906 L 138.73047,42.496094 114.86914,18.634766 91.007812,-5.2265625 67.148438,-29.087891 a 0.18046996,0.18046996 0 0 0 -0.13086,-0.05273 z m 0.002,0.4375 23.734375,23.7324219 23.861324,23.8613281 23.86133,23.861328 23.73242,23.732422 L 138.47656,90.21875 114.61523,114.08008 90.753906,137.93945 67.019531,161.67188 43.287109,137.93945 19.425781,114.08008 -4.4355469,90.21875 -28.169922,66.484375 -4.4355469,42.751953 19.425781,18.890625 43.287109,-4.9707031 67.019531,-28.703125 Z"
       id="rect5078"
       inkscape:connector-curvature="0" /></g><g
     inkscape:groupmode="layer"
     id="layer6"
     inkscape:label="Text"
     style="display:none"
     transform="translate(28.605045,29.140428)"><g
       id="g3"
       transform="matrix(0.66033,0,0,0.66033,-4.8131454,-4.5080799)"><path
         d="m 93.826,14.149 0.997,5.515 0.237,1.232 0.133,0.614 0.133,0.613 -0.063,0.012 -0.506,-0.72 -0.506,-0.712 c -0.4,-0.561 -0.75,-1.036 -1.048,-1.427 l -3.369,-4.405 -3.081,0.558 1.732,9.578 1.817,-0.33 -0.993,-5.494 -0.241,-1.253 -0.135,-0.621 -0.142,-0.627 0.07,-0.012 0.426,0.633 0.432,0.631 c 0.409,0.602 0.705,1.022 0.888,1.26 l 3.687,4.76 3.081,-0.557 -1.733,-9.578 -1.816,0.33 z"
         id="path5"
         inkscape:connector-curvature="0" /><path
         d="m 102.647,17.749 c 0.203,0.228 0.338,0.775 0.403,1.643 0.078,1.028 0.038,1.685 -0.119,1.968 -0.158,0.284 -0.575,0.452 -1.252,0.503 -0.702,0.053 -1.149,-0.042 -1.344,-0.285 -0.194,-0.243 -0.331,-0.875 -0.409,-1.899 -0.068,-0.896 -0.019,-1.473 0.146,-1.731 0.167,-0.258 0.589,-0.413 1.267,-0.464 0.669,-0.052 1.105,0.037 1.308,0.265 z m -3.973,-0.714 c -0.372,0.457 -0.501,1.399 -0.395,2.826 0.113,1.484 0.391,2.428 0.834,2.833 0.443,0.405 1.358,0.554 2.747,0.449 1.281,-0.097 2.101,-0.396 2.464,-0.895 0.362,-0.5 0.486,-1.503 0.373,-3.01 -0.104,-1.352 -0.375,-2.221 -0.814,-2.61 -0.439,-0.388 -1.316,-0.533 -2.629,-0.433 -1.349,0.103 -2.209,0.382 -2.58,0.84 z"
         id="path7"
         inkscape:connector-curvature="0" /><path
         d="m 106.082,16.031 0.101,6.815 1.633,-0.024 -0.102,-6.816 -1.632,0.025 z m -0.044,-2.916 0.021,1.362 1.633,-0.025 -0.021,-1.361 -1.633,0.024 z"
         id="path9"
         inkscape:connector-curvature="0" /><path
         d="m 114.67,16.515 c -0.381,-0.283 -1.139,-0.451 -2.271,-0.5 -1.203,-0.054 -2.021,0.048 -2.457,0.305 -0.434,0.257 -0.67,0.774 -0.703,1.553 -0.039,0.87 0.168,1.452 0.617,1.748 0.451,0.296 1.406,0.476 2.863,0.542 0.646,0.028 0.957,0.331 0.932,0.905 -0.027,0.599 -0.557,0.874 -1.586,0.829 -0.998,-0.044 -1.449,-0.366 -1.355,-0.966 0.006,-0.058 0.023,-0.132 0.053,-0.227 l -1.695,-0.076 -0.008,0.171 c -0.035,0.793 0.154,1.344 0.568,1.652 0.414,0.31 1.203,0.489 2.367,0.541 1.211,0.054 2.057,-0.069 2.539,-0.369 0.482,-0.3 0.742,-0.865 0.779,-1.696 0.033,-0.779 -0.119,-1.302 -0.459,-1.569 -0.34,-0.267 -1.092,-0.456 -2.252,-0.564 -0.863,-0.081 -1.367,-0.161 -1.514,-0.239 -0.146,-0.078 -0.211,-0.304 -0.193,-0.68 0.023,-0.551 0.461,-0.807 1.311,-0.77 0.594,0.027 0.967,0.084 1.117,0.172 0.15,0.087 0.234,0.295 0.254,0.625 l 0.016,0.129 1.596,0.071 c 0.034,-0.775 -0.14,-1.304 -0.519,-1.587 z"
         id="path11"
         inkscape:connector-curvature="0" /><path
         d="m 118.248,19.254 c 0.084,-0.651 0.229,-1.062 0.434,-1.231 0.209,-0.17 0.613,-0.216 1.217,-0.139 0.623,0.08 1.016,0.211 1.182,0.396 0.166,0.184 0.215,0.545 0.145,1.083 l -0.027,0.27 -2.951,-0.379 z m 2.314,3.096 c -0.197,0.107 -0.592,0.122 -1.186,0.045 -0.613,-0.078 -1.008,-0.242 -1.186,-0.489 -0.176,-0.248 -0.223,-0.704 -0.137,-1.369 0.008,-0.047 0.023,-0.146 0.053,-0.295 l 4.576,0.586 0.062,-0.495 c 0.166,-1.292 0.072,-2.185 -0.281,-2.678 -0.353,-0.493 -1.133,-0.817 -2.342,-0.973 -1.258,-0.161 -2.133,-0.042 -2.625,0.354 -0.492,0.397 -0.822,1.253 -0.99,2.569 -0.189,1.48 -0.107,2.476 0.248,2.986 0.357,0.511 1.207,0.853 2.551,1.024 1.98,0.254 3.055,-0.28 3.225,-1.6 l 0.033,-0.262 -1.627,-0.208 c -0.053,0.431 -0.178,0.699 -0.374,0.805 z"
         id="path13"
         inkscape:connector-curvature="0" /><path
         d="m 128.857,19.971 c 0.123,0.304 0.088,0.893 -0.102,1.766 -0.203,0.938 -0.424,1.519 -0.662,1.742 -0.238,0.223 -0.682,0.265 -1.334,0.123 -0.621,-0.135 -0.99,-0.364 -1.104,-0.688 -0.117,-0.325 -0.064,-0.99 0.156,-1.998 0.279,-1.287 0.936,-1.818 1.971,-1.593 0.597,0.128 0.954,0.345 1.075,0.648 z m -3.837,4.494 0.16,-1.067 0.033,0.007 c 0.162,0.823 0.762,1.347 1.797,1.572 1.023,0.221 1.766,0.128 2.23,-0.279 0.467,-0.407 0.848,-1.3 1.146,-2.68 0.275,-1.264 0.285,-2.168 0.031,-2.711 -0.254,-0.544 -0.861,-0.92 -1.816,-1.127 -1.115,-0.242 -1.885,-0.042 -2.312,0.601 l -0.031,-0.021 0.824,-3.805 -1.596,-0.346 -2.062,9.512 1.596,0.344 z"
         id="path15"
         inkscape:connector-curvature="0" /><path
         d="m 130.801,25.811 1.564,0.472 1.158,-3.844 c 0.311,-1.033 0.854,-1.433 1.627,-1.2 0.541,0.163 0.709,0.593 0.498,1.289 -0.018,0.055 -0.061,0.168 -0.133,0.34 l 1.475,0.444 0.139,-0.457 c 0.436,-1.447 0.08,-2.344 -1.066,-2.689 -0.801,-0.242 -1.49,-0.078 -2.07,0.493 l -0.033,-0.018 0.373,-0.886 -1.564,-0.471 -1.968,6.527 z"
         id="path17"
         inkscape:connector-curvature="0" /><path
         d="m 138.832,21.206 -2.316,6.411 1.535,0.555 2.316,-6.411 -1.535,-0.555 z m 0.992,-2.743 -0.465,1.28 1.537,0.555 0.463,-1.281 -1.535,-0.554 z"
         id="path19"
         inkscape:connector-curvature="0" /><path
         d="m 145.262,25.492 c 0.082,0.32 -0.043,0.864 -0.377,1.632 -0.402,0.929 -0.744,1.486 -1.021,1.671 -0.279,0.185 -0.721,0.146 -1.322,-0.114 -0.576,-0.25 -0.891,-0.541 -0.943,-0.875 -0.053,-0.333 0.117,-0.954 0.512,-1.861 0.34,-0.785 0.645,-1.26 0.914,-1.426 0.268,-0.167 0.68,-0.128 1.24,0.114 0.581,0.252 0.915,0.539 0.997,0.859 z m 2.082,-4.025 -1.545,3.566 -0.029,-0.004 c 0.025,-0.756 -0.471,-1.354 -1.492,-1.796 -0.881,-0.382 -1.588,-0.431 -2.119,-0.146 -0.533,0.285 -1.041,0.985 -1.525,2.103 -0.598,1.383 -0.836,2.37 -0.711,2.959 0.127,0.59 0.684,1.1 1.674,1.529 0.98,0.425 1.775,0.336 2.383,-0.266 l 0.023,0.018 -0.488,0.986 1.459,0.632 3.869,-8.931 -1.499,-0.65 z"
         id="path21"
         inkscape:connector-curvature="0" /><path
         d="m 152.369,29.056 c 0.043,0.32 -0.15,0.876 -0.578,1.666 -0.445,0.823 -0.816,1.31 -1.115,1.46 -0.297,0.15 -0.727,0.072 -1.293,-0.234 -0.562,-0.306 -0.861,-0.618 -0.891,-0.937 -0.029,-0.319 0.184,-0.9 0.643,-1.745 0.43,-0.793 0.783,-1.26 1.061,-1.399 0.278,-0.139 0.693,-0.059 1.246,0.24 0.576,0.311 0.884,0.628 0.927,0.949 z m 1.041,-1.262 -0.469,1.028 -0.029,-0.017 c 0.084,-0.867 -0.35,-1.559 -1.303,-2.075 -0.873,-0.474 -1.592,-0.584 -2.158,-0.334 -0.566,0.25 -1.154,0.939 -1.766,2.068 -0.648,1.2 -0.926,2.109 -0.832,2.728 0.094,0.619 0.596,1.174 1.502,1.666 0.916,0.496 1.674,0.493 2.275,-0.008 l 0.027,0.023 -0.73,1.349 c -0.398,0.735 -1.043,0.862 -1.934,0.38 -0.506,-0.274 -0.801,-0.506 -0.887,-0.697 -0.086,-0.189 -0.023,-0.479 0.186,-0.867 l -1.391,-0.754 c -0.441,0.815 -0.564,1.455 -0.367,1.918 0.197,0.463 0.811,0.974 1.84,1.531 1.061,0.575 1.889,0.788 2.48,0.638 0.591,-0.15 1.152,-0.714 1.682,-1.692 l 3.309,-6.106 -1.435,-0.779 z"
         id="path23"
         inkscape:connector-curvature="0" /><path
         d="m 156.275,32.654 c 0.359,-0.548 0.67,-0.854 0.93,-0.916 0.26,-0.062 0.645,0.074 1.152,0.409 0.523,0.345 0.82,0.636 0.889,0.874 0.068,0.239 -0.047,0.584 -0.344,1.037 l -0.145,0.229 -2.482,-1.633 z m 0.719,3.797 c -0.223,0.01 -0.584,-0.149 -1.086,-0.479 -0.516,-0.34 -0.799,-0.66 -0.848,-0.959 -0.051,-0.301 0.109,-0.731 0.477,-1.291 0.025,-0.04 0.086,-0.121 0.176,-0.243 l 3.855,2.536 0.273,-0.417 c 0.717,-1.088 1.023,-1.932 0.922,-2.53 -0.101,-0.598 -0.66,-1.232 -1.676,-1.901 -1.061,-0.697 -1.898,-0.976 -2.516,-0.835 -0.615,0.141 -1.289,0.765 -2.018,1.873 -0.82,1.248 -1.182,2.179 -1.086,2.793 0.096,0.615 0.711,1.295 1.842,2.04 1.668,1.097 2.867,1.089 3.6,-0.022 l 0.145,-0.221 -1.369,-0.901 c -0.238,0.361 -0.468,0.547 -0.691,0.557 z"
         id="path25"
         inkscape:connector-curvature="0" /><polygon
         points="170.268,41.313 166.836,38.304 169.455,35.318 168.066,34.1 161.648,41.418 163.037,42.636 165.811,39.473 169.242,42.481 166.469,45.645 167.857,46.862 174.275,39.544 172.887,38.327 "
         id="polygon27" /><path
         d="m 173.318,49.726 c -0.488,0.457 -1.072,0.322 -1.75,-0.404 -0.416,-0.445 -0.637,-0.784 -0.668,-1.018 -0.027,-0.232 0.119,-0.5 0.443,-0.801 0.465,-0.435 1.014,-0.315 1.643,0.359 0.723,0.775 0.834,1.396 0.332,1.864 z m 1.782,-3.622 c 0.393,0.421 0.588,0.758 0.588,1.012 0,0.254 -0.195,0.562 -0.584,0.926 l -0.809,0.753 -0.02,-0.021 c 0.215,-0.53 -0.064,-1.208 -0.832,-2.031 -1.15,-1.234 -2.244,-1.368 -3.281,-0.402 -1.023,0.957 -0.975,2.039 0.15,3.245 0.775,0.831 1.518,1.129 2.23,0.895 l 0.021,0.036 -0.736,0.581 1.115,1.194 3.258,-3.04 c 0.695,-0.648 1.02,-1.246 0.971,-1.792 -0.047,-0.547 -0.49,-1.268 -1.328,-2.166 -0.768,-0.824 -1.381,-1.281 -1.844,-1.371 -0.461,-0.09 -0.99,0.144 -1.588,0.702 l 1.139,1.22 c 0.466,-0.435 0.983,-0.349 1.55,0.259 z"
         id="path29"
         inkscape:connector-curvature="0" /><path
         d="m 177.551,55.7 c -0.23,-0.021 -0.52,-0.252 -0.865,-0.692 -0.441,-0.561 -0.621,-0.988 -0.541,-1.284 0.078,-0.295 0.492,-0.736 1.24,-1.323 0.771,-0.608 1.311,-0.925 1.611,-0.949 0.301,-0.025 0.652,0.219 1.055,0.731 0.566,0.721 0.537,1.327 -0.086,1.817 l 1,1.273 c 0.758,-0.596 1.145,-1.165 1.156,-1.707 0.014,-0.542 -0.344,-1.276 -1.074,-2.204 -0.754,-0.96 -1.449,-1.46 -2.084,-1.5 -0.635,-0.038 -1.49,0.365 -2.568,1.21 -1.102,0.867 -1.705,1.609 -1.809,2.229 -0.104,0.619 0.242,1.433 1.035,2.443 1.082,1.375 2.055,1.851 2.916,1.426 l 0.875,-0.561 0.186,-0.145 -1.004,-1.279 c -0.463,0.365 -0.811,0.537 -1.043,0.515 z"
         id="path31"
         inkscape:connector-curvature="0" /><polygon
         points="182.496,57.959 187.137,54.884 186.236,53.522 178.123,58.896 179.023,60.258 181.543,58.589 181.766,58.922 180.469,62.44 181.586,64.128 183.016,59.752 187.002,59.96 185.955,58.379 182.729,58.31 "
         id="polygon33" /><path
         d="m 186.141,63.883 c 0.574,-0.316 0.992,-0.441 1.25,-0.375 0.26,0.066 0.535,0.366 0.828,0.899 0.303,0.549 0.428,0.946 0.377,1.188 -0.051,0.242 -0.314,0.494 -0.789,0.755 l -0.234,0.137 -1.432,-2.604 z m -1.139,3.693 c -0.201,-0.095 -0.447,-0.405 -0.736,-0.93 -0.297,-0.542 -0.398,-0.957 -0.303,-1.246 0.098,-0.289 0.439,-0.594 1.027,-0.917 0.041,-0.023 0.131,-0.067 0.268,-0.133 l 2.223,4.043 0.438,-0.241 c 1.143,-0.627 1.809,-1.229 1.998,-1.805 0.189,-0.577 -0.008,-1.398 -0.594,-2.465 -0.611,-1.112 -1.223,-1.75 -1.834,-1.913 -0.611,-0.164 -1.496,0.074 -2.658,0.713 -1.309,0.719 -2.064,1.373 -2.266,1.961 -0.203,0.589 0.021,1.477 0.674,2.664 0.963,1.75 2.027,2.304 3.193,1.663 l 0.232,-0.127 -0.791,-1.437 c -0.379,0.209 -0.67,0.266 -0.871,0.17 z"
         id="path35"
         inkscape:connector-curvature="0" /><path
         d="m 185.275,71.021 0.674,1.487 3.656,-1.657 c 0.982,-0.445 1.641,-0.3 1.977,0.437 0.232,0.515 0.018,0.923 -0.645,1.223 -0.053,0.023 -0.166,0.065 -0.344,0.124 l 0.637,1.403 0.434,-0.197 c 1.377,-0.624 1.818,-1.481 1.324,-2.573 -0.346,-0.762 -0.924,-1.174 -1.732,-1.234 l -0.01,-0.035 0.912,-0.304 -0.674,-1.487 -6.209,2.813 z"
         id="path37"
         inkscape:connector-curvature="0" /><path
         d="m 198.051,84.508 c 0.963,-0.298 1.535,-0.741 1.715,-1.33 0.182,-0.589 0.057,-1.582 -0.377,-2.981 -0.457,-1.476 -0.941,-2.404 -1.455,-2.785 -0.514,-0.381 -1.312,-0.403 -2.398,-0.067 -1.062,0.328 -1.691,0.748 -1.889,1.255 -0.195,0.509 -0.107,1.512 0.262,3.01 l 0.238,0.993 c 0.139,0.559 0.16,0.944 0.064,1.156 -0.098,0.211 -0.371,0.386 -0.82,0.525 -0.607,0.188 -1.031,0.199 -1.266,0.033 -0.236,-0.166 -0.475,-0.644 -0.721,-1.434 -0.312,-1.013 -0.432,-1.655 -0.355,-1.926 0.074,-0.272 0.438,-0.509 1.086,-0.71 l 0.195,-0.068 -0.531,-1.716 -0.338,0.112 c -1.082,0.334 -1.725,0.796 -1.932,1.385 -0.205,0.588 -0.082,1.614 0.369,3.076 0.504,1.626 1.01,2.622 1.52,2.987 0.508,0.365 1.379,0.356 2.613,-0.026 1.006,-0.311 1.604,-0.718 1.795,-1.223 0.191,-0.505 0.113,-1.462 -0.238,-2.871 -0.299,-1.19 -0.422,-1.909 -0.369,-2.155 0.053,-0.245 0.373,-0.458 0.959,-0.64 0.496,-0.153 0.859,-0.125 1.094,0.083 0.235,0.208 0.48,0.73 0.738,1.566 0.219,0.708 0.291,1.179 0.217,1.411 -0.076,0.231 -0.367,0.449 -0.877,0.651 l -0.188,0.073 0.533,1.723 0.356,-0.107 z"
         id="path39"
         inkscape:connector-curvature="0" /><path
         d="m 197.418,91.231 c -0.227,0.244 -0.795,0.461 -1.707,0.653 -0.889,0.186 -1.486,0.214 -1.797,0.084 -0.309,-0.129 -0.527,-0.506 -0.658,-1.129 -0.129,-0.615 -0.072,-1.051 0.17,-1.311 0.24,-0.259 0.795,-0.479 1.66,-0.661 0.891,-0.186 1.49,-0.215 1.805,-0.086 0.312,0.128 0.533,0.498 0.66,1.107 0.137,0.652 0.094,1.1 -0.133,1.343 z m -8.879,-2.74 0.348,1.668 3.832,-0.803 0.006,0.029 c -0.631,0.467 -0.836,1.224 -0.617,2.271 0.205,0.981 0.594,1.603 1.162,1.862 0.57,0.26 1.52,0.25 2.85,-0.028 1.275,-0.267 2.115,-0.634 2.521,-1.1 0.404,-0.467 0.504,-1.186 0.301,-2.158 -0.219,-1.052 -0.732,-1.696 -1.533,-1.93 l 0,-0.036 1.004,-0.145 -0.34,-1.626 -9.534,1.996 z"
         id="path41"
         inkscape:connector-curvature="0" /><path
         d="m 195.424,99.43 c -0.664,0.08 -1.057,-0.373 -1.174,-1.359 -0.074,-0.604 -0.053,-1.009 0.061,-1.214 0.115,-0.205 0.391,-0.334 0.83,-0.387 0.631,-0.076 1.004,0.344 1.113,1.259 0.127,1.052 -0.149,1.62 -0.83,1.701 z m 3.574,-1.873 c 0.07,0.571 0.029,0.959 -0.121,1.164 -0.15,0.205 -0.49,0.339 -1.018,0.402 l -1.1,0.132 -0.002,-0.028 c 0.484,-0.303 0.66,-1.013 0.525,-2.132 -0.201,-1.676 -1.006,-2.429 -2.412,-2.259 -1.391,0.167 -1.988,1.07 -1.793,2.708 0.137,1.128 0.561,1.807 1.273,2.038 l -0.002,0.043 -0.938,0.034 0.195,1.622 4.424,-0.533 c 0.945,-0.114 1.559,-0.405 1.842,-0.875 0.283,-0.47 0.354,-1.313 0.205,-2.531 -0.133,-1.118 -0.361,-1.85 -0.68,-2.194 -0.32,-0.345 -0.885,-0.468 -1.697,-0.371 l 0.201,1.657 c 0.633,-0.078 1,0.297 1.098,1.123 z"
         id="path43"
         inkscape:connector-curvature="0" /><path
         d="m 195.324,106.762 c -0.174,-0.153 -0.271,-0.51 -0.293,-1.071 -0.025,-0.712 0.082,-1.165 0.318,-1.356 0.238,-0.191 0.834,-0.305 1.783,-0.339 0.982,-0.036 1.604,0.025 1.861,0.183 0.258,0.157 0.398,0.561 0.422,1.211 0.033,0.917 -0.348,1.39 -1.139,1.418 l 0.057,1.618 c 0.965,-0.035 1.613,-0.268 1.941,-0.698 0.33,-0.431 0.473,-1.235 0.43,-2.413 -0.043,-1.22 -0.311,-2.034 -0.803,-2.439 -0.49,-0.406 -1.418,-0.583 -2.787,-0.535 -1.402,0.051 -2.326,0.296 -2.773,0.736 -0.447,0.44 -0.648,1.3 -0.602,2.583 0.062,1.748 0.568,2.705 1.516,2.871 l 1.037,0.062 0.234,-0.008 -0.059,-1.625 c -0.586,0.021 -0.969,-0.045 -1.143,-0.198 z"
         id="path45"
         inkscape:connector-curvature="0" /><path
         d="m 197.953,111.311 c 0.656,0.03 1.076,0.141 1.262,0.333 0.188,0.192 0.266,0.592 0.238,1.199 -0.029,0.627 -0.129,1.03 -0.299,1.21 -0.172,0.18 -0.527,0.258 -1.066,0.233 l -0.271,-0.006 0.136,-2.969 z m -2.898,2.556 c -0.121,-0.187 -0.17,-0.579 -0.141,-1.178 0.027,-0.617 0.158,-1.023 0.391,-1.22 0.232,-0.197 0.684,-0.279 1.354,-0.248 0.047,0.002 0.146,0.012 0.299,0.027 l -0.215,4.608 0.5,0.023 c 1.301,0.061 2.184,-0.105 2.646,-0.498 0.461,-0.393 0.723,-1.197 0.779,-2.412 0.059,-1.268 -0.129,-2.131 -0.566,-2.589 -0.436,-0.458 -1.314,-0.718 -2.641,-0.779 -1.49,-0.069 -2.477,0.095 -2.957,0.491 -0.479,0.396 -0.75,1.271 -0.814,2.625 -0.092,1.994 0.527,3.022 1.857,3.083 l 0.264,0.013 0.076,-1.638 c -0.434,-0.019 -0.711,-0.122 -0.832,-0.308 z"
         id="path47"
         inkscape:connector-curvature="0" /></g><g
       id="g49"
       transform="matrix(0.66033,0,0,0.66033,-4.8131454,-4.5080799)"><path
         d="m 94.381,194.732 1.221,-6.893 -1.156,-0.204 -0.485,2.742 c -0.145,0.817 -0.611,1.156 -1.399,1.017 -0.576,-0.102 -0.813,-0.436 -0.713,-1.001 l 0.028,-0.155 0.525,-2.965 -1.157,-0.205 -0.581,3.283 c -0.189,1.065 0.28,1.7 1.408,1.899 0.774,0.138 1.319,-0.062 1.636,-0.596 l 0.024,0.01 -0.507,2.863 1.156,0.205 z"
         id="path51"
         inkscape:connector-curvature="0" /><path
         d="m 87.835,191.304 -0.254,1.067 1.143,0.271 0.253,-1.068 0.619,0.148 0.206,-0.868 -0.618,-0.147 0.607,-2.56 c 0.222,-0.936 -0.177,-1.523 -1.194,-1.764 -1.021,-0.243 -1.65,-0.007 -1.886,0.706 -0.051,0.153 -0.102,0.339 -0.154,0.56 l -0.057,0.239 0.972,0.231 0.045,-0.19 c 0.127,-0.535 0.376,-0.759 0.745,-0.672 0.336,0.08 0.452,0.341 0.347,0.783 l -0.568,2.396 -1.836,-0.436 -0.206,0.868 1.836,0.436 z"
         id="path53"
         inkscape:connector-curvature="0" /><path
         d="m 83.822,190.256 -0.304,1.055 1.128,0.326 0.305,-1.055 0.611,0.177 0.247,-0.858 -0.611,-0.176 0.73,-2.527 c 0.267,-0.922 -0.103,-1.528 -1.108,-1.818 -1.008,-0.291 -1.647,-0.086 -1.917,0.614 -0.057,0.151 -0.118,0.334 -0.18,0.551 l -0.068,0.237 0.961,0.277 0.054,-0.188 c 0.153,-0.529 0.412,-0.741 0.776,-0.636 0.332,0.096 0.434,0.362 0.309,0.8 l -0.683,2.364 -1.812,-0.523 -0.248,0.857 1.81,0.523 z"
         id="path55"
         inkscape:connector-curvature="0" /><path
         d="m 78.363,187.266 c -0.065,-0.229 0.013,-0.66 0.235,-1.293 0.218,-0.615 0.424,-0.994 0.619,-1.136 0.195,-0.142 0.508,-0.136 0.94,0.017 0.425,0.15 0.672,0.348 0.742,0.594 0.069,0.246 -0.002,0.668 -0.213,1.268 -0.217,0.615 -0.423,0.996 -0.62,1.141 -0.196,0.145 -0.505,0.143 -0.928,-0.007 -0.451,-0.16 -0.709,-0.354 -0.775,-0.584 z m 4.997,-4.436 -1.156,-0.408 -0.936,2.655 -0.02,-0.008 c -0.052,-0.562 -0.44,-0.97 -1.166,-1.227 -0.68,-0.239 -1.206,-0.231 -1.578,0.021 -0.372,0.252 -0.721,0.84 -1.046,1.762 -0.311,0.884 -0.399,1.536 -0.264,1.96 0.135,0.423 0.54,0.753 1.213,0.99 0.729,0.258 1.315,0.184 1.758,-0.222 l 0.022,0.013 -0.285,0.672 1.127,0.397 2.331,-6.605 z"
         id="path57"
         inkscape:connector-curvature="0" /><path
         d="m 72.275,185.801 c 0.184,0.287 0.651,0.592 1.402,0.912 0.795,0.34 1.372,0.479 1.729,0.417 0.357,-0.062 0.647,-0.352 0.867,-0.867 0.246,-0.575 0.254,-1.021 0.026,-1.333 -0.229,-0.313 -0.825,-0.677 -1.791,-1.089 -0.427,-0.184 -0.56,-0.465 -0.397,-0.845 0.169,-0.396 0.595,-0.448 1.277,-0.157 0.66,0.282 0.883,0.614 0.668,0.994 l -0.093,0.14 1.122,0.479 0.048,-0.112 c 0.225,-0.525 0.236,-0.944 0.036,-1.256 -0.201,-0.313 -0.687,-0.635 -1.457,-0.964 -0.801,-0.343 -1.402,-0.475 -1.802,-0.395 -0.4,0.08 -0.718,0.395 -0.954,0.945 -0.221,0.515 -0.25,0.905 -0.088,1.172 0.161,0.266 0.619,0.583 1.373,0.949 0.561,0.273 0.879,0.454 0.958,0.543 0.079,0.091 0.065,0.26 -0.041,0.508 -0.157,0.364 -0.515,0.426 -1.078,0.186 -0.393,-0.168 -0.628,-0.3 -0.708,-0.397 -0.079,-0.097 -0.083,-0.259 -0.013,-0.485 l 0.022,-0.091 -1.056,-0.452 c -0.217,0.511 -0.234,0.911 -0.05,1.198 z"
         id="path59"
         inkscape:connector-curvature="0" /><path
         d="m 70.731,185.321 0.547,-1.137 -1.058,-0.51 -0.547,1.137 1.058,0.51 z m 1.58,-3.28 0.547,-1.137 -1.058,-0.509 -0.547,1.137 1.058,0.509 z"
         id="path61"
         inkscape:connector-curvature="0" /><polygon
         points="72.876,178.678 72.103,178.254 63,183.646 63.773,184.07 "
         id="polygon63" /><polygon
         points="67.53,175.812 66.792,175.331 57.3,180.004 58.039,180.486 "
         id="polygon65" /><path
         d="m 60.218,173.487 -0.934,-0.712 -1.762,2.313 c -0.454,0.595 -0.994,0.652 -1.623,0.175 -0.414,-0.315 -0.531,-0.635 -0.353,-0.959 l 0.188,-0.289 0.112,-0.147 1.79,-2.349 -0.934,-0.712 -2.023,2.655 c -0.654,0.859 -0.521,1.64 0.4,2.342 0.634,0.483 1.221,0.56 1.761,0.228 l 0.017,0.02 -0.537,0.629 0.925,0.705 2.973,-3.899 z"
         id="path67"
         inkscape:connector-curvature="0" /><path
         d="m 51.127,170.984 c 0.014,-0.22 0.227,-0.563 0.639,-1.035 0.489,-0.558 0.845,-0.869 1.069,-0.932 0.224,-0.063 0.521,0.067 0.889,0.389 0.381,0.334 0.559,0.61 0.532,0.833 -0.026,0.223 -0.282,0.611 -0.768,1.167 -0.425,0.486 -0.746,0.753 -0.962,0.798 -0.216,0.045 -0.509,-0.094 -0.876,-0.416 -0.363,-0.316 -0.537,-0.585 -0.523,-0.804 z m 1.637,2.398 c 0.421,-0.041 0.97,-0.448 1.648,-1.223 0.703,-0.807 1.047,-1.425 1.032,-1.856 -0.015,-0.431 -0.4,-0.976 -1.155,-1.636 -0.695,-0.606 -1.261,-0.877 -1.701,-0.812 -0.439,0.065 -1.016,0.508 -1.731,1.327 -0.641,0.733 -0.95,1.312 -0.928,1.731 0.023,0.422 0.39,0.943 1.103,1.566 0.734,0.643 1.311,0.943 1.732,0.903 z"
         id="path69"
         inkscape:connector-curvature="0" /><path
         d="m 48.519,170.119 3.397,-3.534 -0.847,-0.813 -3.396,3.534 0.846,0.813 z m -1.454,1.512 0.679,-0.706 -0.847,-0.813 -0.679,0.706 0.847,0.813 z"
         id="path71"
         inkscape:connector-curvature="0" /><path
         d="m 44.394,165.615 c 0.056,0.336 0.365,0.801 0.928,1.394 0.595,0.627 1.07,0.982 1.423,1.066 0.353,0.084 0.733,-0.067 1.139,-0.454 0.454,-0.43 0.637,-0.835 0.552,-1.212 -0.086,-0.379 -0.491,-0.948 -1.213,-1.71 -0.32,-0.336 -0.331,-0.647 -0.031,-0.933 0.312,-0.297 0.724,-0.176 1.235,0.362 0.494,0.52 0.567,0.912 0.22,1.177 l -0.14,0.091 0.84,0.885 0.089,-0.085 c 0.415,-0.393 0.59,-0.773 0.53,-1.14 -0.061,-0.367 -0.379,-0.854 -0.956,-1.461 -0.601,-0.632 -1.101,-0.99 -1.5,-1.076 -0.399,-0.085 -0.815,0.078 -1.249,0.491 -0.406,0.386 -0.588,0.732 -0.545,1.041 0.042,0.308 0.337,0.779 0.885,1.415 0.406,0.472 0.627,0.766 0.665,0.879 0.037,0.113 -0.043,0.264 -0.239,0.449 -0.288,0.272 -0.642,0.188 -1.063,-0.257 -0.294,-0.31 -0.458,-0.523 -0.493,-0.646 -0.035,-0.12 0.026,-0.271 0.18,-0.449 l 0.057,-0.074 -0.792,-0.834 c -0.403,0.385 -0.577,0.746 -0.522,1.081 z"
         id="path73"
         inkscape:connector-curvature="0" /><path
         d="m 43.904,162.457 c -0.361,0.301 -0.639,0.447 -0.83,0.437 -0.192,-0.013 -0.428,-0.185 -0.709,-0.521 -0.289,-0.347 -0.433,-0.608 -0.43,-0.787 0.002,-0.178 0.153,-0.392 0.452,-0.642 l 0.146,-0.129 1.371,1.642 z m 0.294,-2.766 c 0.155,0.041 0.371,0.226 0.647,0.557 0.285,0.34 0.414,0.619 0.385,0.836 -0.028,0.218 -0.227,0.48 -0.597,0.79 l -0.171,0.13 -2.128,-2.546 -0.275,0.229 c -0.719,0.602 -1.106,1.117 -1.161,1.551 -0.054,0.434 0.199,0.986 0.76,1.657 0.585,0.701 1.105,1.067 1.559,1.098 0.453,0.03 1.045,-0.26 1.777,-0.872 0.824,-0.688 1.267,-1.253 1.328,-1.696 0.062,-0.443 -0.22,-1.039 -0.844,-1.787 -0.921,-1.102 -1.748,-1.345 -2.482,-0.731 l -0.146,0.121 0.756,0.904 c 0.24,-0.2 0.437,-0.279 0.592,-0.241 z"
         id="path75"
         inkscape:connector-curvature="0" /><path
         d="m 38.618,156.965 c 0.08,-0.222 0.379,-0.521 0.898,-0.899 0.557,-0.408 0.954,-0.615 1.188,-0.62 0.234,-0.007 0.493,0.184 0.775,0.57 0.27,0.37 0.358,0.67 0.265,0.898 -0.093,0.229 -0.438,0.562 -1.038,1 -0.765,0.557 -1.372,0.529 -1.821,-0.088 -0.259,-0.352 -0.348,-0.639 -0.267,-0.861 z m 4.209,-0.581 -0.595,0.498 -0.015,-0.021 c 0.307,-0.521 0.235,-1.088 -0.214,-1.703 -0.444,-0.608 -0.888,-0.914 -1.332,-0.917 -0.445,-0.003 -1.077,0.295 -1.898,0.893 -0.75,0.549 -1.188,1.029 -1.311,1.443 -0.124,0.413 0.022,0.905 0.437,1.474 0.484,0.663 0.994,0.924 1.529,0.781 l 0.007,0.027 -2.261,1.65 0.692,0.949 5.654,-4.126 -0.693,-0.948 z"
         id="path77"
         inkscape:connector-curvature="0" /><path
         d="m 40.318,152.895 -0.622,-0.996 -2.448,1.53 c -0.658,0.411 -1.141,0.371 -1.45,-0.121 -0.215,-0.345 -0.101,-0.655 0.343,-0.934 0.034,-0.022 0.112,-0.062 0.232,-0.121 l -0.587,-0.939 -0.292,0.182 c -0.922,0.576 -1.154,1.23 -0.697,1.961 0.319,0.51 0.771,0.748 1.353,0.713 l 0.01,0.026 -0.621,0.303 0.623,0.995 4.156,-2.599 z"
         id="path79"
         inkscape:connector-curvature="0" /><path
         d="m 33.8,151.694 4.228,-2.481 -0.594,-1.013 -4.228,2.481 0.594,1.013 z m -1.808,1.062 0.844,-0.496 -0.594,-1.013 -0.844,0.495 0.594,1.014 z"
         id="path81"
         inkscape:connector-curvature="0" /><path
         d="m 32.187,146.404 c 0.098,-0.216 0.415,-0.464 0.947,-0.744 0.645,-0.337 1.087,-0.496 1.327,-0.473 0.24,0.022 0.469,0.242 0.689,0.66 0.209,0.399 0.254,0.705 0.133,0.915 -0.121,0.211 -0.497,0.481 -1.126,0.812 -0.545,0.285 -0.93,0.416 -1.155,0.387 -0.225,-0.028 -0.44,-0.236 -0.644,-0.624 -0.213,-0.405 -0.27,-0.716 -0.171,-0.933 z m -2.982,1.316 2.474,-1.3 0.014,0.016 c -0.355,0.41 -0.348,0.97 0.025,1.678 0.32,0.611 0.695,0.959 1.121,1.039 0.427,0.081 1.028,-0.082 1.803,-0.489 0.959,-0.503 1.537,-0.949 1.733,-1.335 0.196,-0.387 0.114,-0.926 -0.247,-1.612 -0.357,-0.681 -0.842,-0.989 -1.454,-0.927 l -0.005,-0.021 0.719,-0.331 -0.532,-1.012 -6.197,3.253 0.546,1.041 z"
         id="path83"
         inkscape:connector-curvature="0" /><path
         d="m 29.764,141.27 c 0.116,-0.201 0.47,-0.433 1.061,-0.693 0.616,-0.273 1.041,-0.386 1.276,-0.341 0.235,0.046 0.446,0.279 0.633,0.702 0.187,0.422 0.218,0.729 0.095,0.924 -0.123,0.195 -0.5,0.433 -1.132,0.711 -0.594,0.264 -1,0.374 -1.22,0.329 -0.219,-0.042 -0.419,-0.271 -0.603,-0.683 -0.189,-0.433 -0.227,-0.748 -0.11,-0.949 z m -1.147,0.26 0.719,-0.379 0.01,0.022 c -0.43,0.456 -0.488,1.04 -0.172,1.753 0.289,0.653 0.65,1.033 1.082,1.14 0.432,0.105 1.07,-0.028 1.914,-0.401 0.896,-0.397 1.455,-0.792 1.673,-1.187 0.219,-0.394 0.177,-0.93 -0.123,-1.607 -0.303,-0.686 -0.736,-1.017 -1.298,-0.996 l -0.006,-0.025 1.009,-0.445 c 0.55,-0.244 0.972,-0.033 1.267,0.633 0.167,0.379 0.233,0.64 0.199,0.787 -0.034,0.146 -0.197,0.283 -0.488,0.411 l 0.461,1.041 c 0.609,-0.269 0.96,-0.58 1.051,-0.931 0.092,-0.35 -0.033,-0.91 -0.373,-1.68 -0.351,-0.794 -0.728,-1.277 -1.131,-1.453 -0.403,-0.176 -0.97,-0.101 -1.701,0.223 l -4.567,2.021 0.474,1.073 z"
         id="path85"
         inkscape:connector-curvature="0" /><path
         d="m 29.112,137.57 c -0.443,0.162 -0.753,0.205 -0.929,0.13 -0.177,-0.076 -0.341,-0.319 -0.491,-0.729 -0.155,-0.424 -0.201,-0.719 -0.139,-0.887 0.063,-0.166 0.277,-0.316 0.644,-0.45 l 0.181,-0.071 0.734,2.007 z m 1.212,-2.501 c 0.133,0.089 0.272,0.336 0.421,0.739 0.153,0.418 0.179,0.725 0.08,0.919 -0.1,0.195 -0.376,0.376 -0.829,0.541 -0.032,0.012 -0.101,0.032 -0.207,0.064 l -1.139,-3.116 -0.337,0.124 c -0.88,0.321 -1.418,0.678 -1.617,1.066 -0.198,0.39 -0.146,0.994 0.155,1.817 0.312,0.856 0.678,1.376 1.094,1.558 0.417,0.184 1.072,0.11 1.968,-0.217 1.009,-0.368 1.617,-0.751 1.825,-1.147 0.208,-0.397 0.145,-1.053 -0.19,-1.967 -0.493,-1.349 -1.189,-1.858 -2.088,-1.53 l -0.179,0.065 0.406,1.107 c 0.292,-0.104 0.504,-0.113 0.637,-0.023 z"
         id="path87"
         inkscape:connector-curvature="0" /><rect
         x="29.110001"
         y="131.674"
         transform="matrix(-0.954,0.2997,-0.2997,-0.954,97.7513,249.5306)"
         width="1.261"
         height="1.175"
         id="rect89" /><path
         d="m 29.843,130.531 -0.298,-1.136 -2.812,0.739 c -0.724,0.19 -1.186,-0.097 -1.387,-0.859 -0.132,-0.503 -0.028,-0.827 0.312,-0.974 l 0.326,-0.111 0.179,-0.048 2.856,-0.751 -0.299,-1.135 -3.228,0.849 c -1.044,0.274 -1.42,0.973 -1.125,2.093 0.202,0.771 0.619,1.191 1.249,1.263 l 0.001,0.025 -0.81,0.166 0.295,1.125 4.741,-1.246 z"
         id="path91"
         inkscape:connector-curvature="0" /><path
         d="m 25.396,124.807 c -0.463,0.089 -0.776,0.082 -0.938,-0.021 -0.163,-0.103 -0.286,-0.369 -0.369,-0.799 -0.085,-0.442 -0.083,-0.741 0.004,-0.896 0.089,-0.155 0.324,-0.27 0.707,-0.343 l 0.19,-0.043 0.406,2.102 z m 1.594,-2.278 c 0.118,0.109 0.217,0.377 0.299,0.799 0.084,0.437 0.061,0.743 -0.068,0.92 -0.13,0.176 -0.431,0.31 -0.904,0.401 -0.034,0.005 -0.105,0.017 -0.213,0.03 l -0.629,-3.256 -0.353,0.067 c -0.92,0.177 -1.509,0.442 -1.766,0.795 -0.257,0.353 -0.303,0.959 -0.137,1.817 0.173,0.896 0.45,1.468 0.832,1.715 0.383,0.246 1.041,0.279 1.978,0.098 1.054,-0.203 1.716,-0.484 1.984,-0.842 0.268,-0.359 0.31,-1.017 0.125,-1.973 -0.272,-1.41 -0.878,-2.023 -1.818,-1.843 l -0.186,0.037 0.224,1.157 c 0.305,-0.056 0.516,-0.032 0.632,0.078 z"
         id="path93"
         inkscape:connector-curvature="0" /><path
         d="m 22.528,119.527 -1.087,0.147 0.157,1.163 1.088,-0.146 0.084,0.63 0.884,-0.119 -0.085,-0.63 2.607,-0.352 c 0.951,-0.13 1.357,-0.712 1.217,-1.748 -0.14,-1.04 -0.585,-1.542 -1.335,-1.506 -0.162,0.008 -0.354,0.026 -0.578,0.057 l -0.244,0.033 0.133,0.99 0.193,-0.025 c 0.545,-0.074 0.843,0.077 0.895,0.454 0.046,0.342 -0.156,0.543 -0.607,0.604 l -2.439,0.33 -0.252,-1.87 -0.884,0.119 0.253,1.869 z"
         id="path95"
         inkscape:connector-curvature="0" /></g><g
       id="g97"
       transform="matrix(0.66033,0,0,0.66033,-4.8131454,-4.5080799)"><path
         d="m 113.281,201.871 -0.016,-0.176 c -0.035,-0.454 0.004,-0.735 0.119,-0.842 0.115,-0.105 0.549,-0.259 1.299,-0.458 0.908,-0.244 1.48,-0.504 1.717,-0.778 0.237,-0.274 0.324,-0.787 0.264,-1.54 -0.062,-0.795 -0.273,-1.322 -0.633,-1.58 -0.359,-0.257 -1.01,-0.349 -1.951,-0.274 -0.963,0.076 -1.602,0.27 -1.914,0.577 -0.312,0.307 -0.436,0.867 -0.371,1.679 l 0.021,0.271 1.203,-0.095 -0.021,-0.275 c -0.039,-0.471 0.01,-0.773 0.143,-0.905 0.133,-0.133 0.469,-0.221 1.014,-0.265 0.527,-0.041 0.865,-0.008 1.016,0.101 0.15,0.109 0.244,0.387 0.279,0.836 0.037,0.468 -0.01,0.763 -0.143,0.887 -0.131,0.123 -0.572,0.283 -1.322,0.479 -0.906,0.237 -1.473,0.478 -1.699,0.721 -0.229,0.244 -0.314,0.708 -0.26,1.391 l 0.105,1.316 4.889,-0.389 -0.076,-0.972 -3.663,0.291 z"
         id="path99"
         inkscape:connector-curvature="0" /><polygon
         points="118.752,198.569 120.18,196.671 120.959,202.029 122.178,201.852 121.244,195.431 119.705,195.654 117.912,197.89 "
         id="polygon101" /><path
         d="m 127.684,197.94 c 0.158,0.08 0.283,0.336 0.375,0.767 0.098,0.455 0.088,0.754 -0.025,0.896 -0.113,0.144 -0.445,0.272 -0.998,0.391 -0.576,0.123 -0.949,0.137 -1.119,0.039 -0.17,-0.096 -0.311,-0.403 -0.42,-0.92 -0.076,-0.356 -0.045,-0.603 0.094,-0.737 0.137,-0.135 0.49,-0.264 1.057,-0.385 0.532,-0.113 0.877,-0.13 1.036,-0.051 z m 0.912,-2.274 c -0.135,-0.633 -0.391,-1.032 -0.771,-1.2 -0.379,-0.17 -1.002,-0.161 -1.871,0.024 -1.189,0.254 -1.877,0.587 -2.062,0.998 -0.188,0.412 -0.107,1.426 0.236,3.036 0.277,1.305 0.598,2.096 0.961,2.369 0.363,0.274 1.113,0.29 2.246,0.048 0.922,-0.196 1.512,-0.471 1.77,-0.824 0.258,-0.353 0.301,-0.941 0.125,-1.762 -0.152,-0.71 -0.404,-1.162 -0.756,-1.356 -0.354,-0.196 -0.938,-0.207 -1.752,-0.033 -0.832,0.176 -1.307,0.492 -1.428,0.945 l -0.023,0.005 -0.232,-1.092 c -0.102,-0.48 -0.088,-0.797 0.041,-0.949 0.129,-0.152 0.508,-0.297 1.133,-0.43 0.432,-0.092 0.723,-0.105 0.875,-0.043 0.154,0.062 0.262,0.243 0.324,0.541 l 0.027,0.145 1.193,-0.255 -0.036,-0.167 z"
         id="path103"
         inkscape:connector-curvature="0" /><path
         d="m 132.936,193.92 c 0.18,0.071 0.334,0.339 0.465,0.802 0.115,0.405 0.117,0.679 0.006,0.821 -0.111,0.142 -0.449,0.294 -1.014,0.453 -0.533,0.151 -0.881,0.192 -1.045,0.123 -0.162,-0.068 -0.305,-0.318 -0.426,-0.748 -0.121,-0.428 -0.133,-0.716 -0.033,-0.867 0.098,-0.152 0.393,-0.298 0.883,-0.437 0.599,-0.17 0.986,-0.218 1.164,-0.147 z m -2.434,4.608 c 0.174,0.615 0.457,0.989 0.85,1.122 0.393,0.134 1.035,0.072 1.932,-0.182 1.162,-0.329 1.826,-0.699 1.992,-1.109 0.164,-0.411 0.033,-1.369 -0.393,-2.872 -0.396,-1.396 -0.777,-2.22 -1.143,-2.473 -0.367,-0.251 -1.129,-0.213 -2.283,0.113 -0.891,0.253 -1.449,0.564 -1.674,0.935 -0.227,0.371 -0.225,0.966 0.008,1.787 0.199,0.701 0.479,1.131 0.838,1.285 0.359,0.157 0.965,0.115 1.82,-0.127 0.758,-0.214 1.18,-0.555 1.262,-1.02 l 0.021,-0.007 0.258,0.91 c 0.166,0.582 0.201,0.955 0.107,1.117 -0.094,0.161 -0.441,0.327 -1.043,0.497 -0.555,0.158 -0.908,0.21 -1.062,0.156 -0.152,-0.054 -0.287,-0.278 -0.398,-0.676 l -1.152,0.327 0.06,0.217 z"
         id="path105"
         inkscape:connector-curvature="0" /><rect
         x="136.728"
         y="197.02"
         transform="matrix(-0.3137,-0.9495,0.9495,-0.3137,-7.1979,389.9255)"
         width="1.17"
         height="1.089"
         id="rect107" /><path
         d="m 139.211,197.599 1.014,-0.399 -0.963,-2.451 c -0.27,-0.684 -0.092,-1.147 0.529,-1.393 0.301,-0.119 0.52,-0.14 0.656,-0.066 0.137,0.074 0.273,0.287 0.412,0.639 l 1.029,2.619 1.012,-0.397 -0.971,-2.475 c -0.264,-0.67 -0.088,-1.125 0.529,-1.367 0.492,-0.193 0.857,0.01 1.092,0.607 l 1.014,2.579 1.014,-0.397 -1.102,-2.8 c -0.387,-0.986 -1.068,-1.287 -2.049,-0.901 -0.672,0.264 -1.004,0.696 -0.998,1.296 l -0.018,0.006 c -0.291,-0.487 -0.816,-0.582 -1.582,-0.281 -0.654,0.257 -0.992,0.66 -1.016,1.211 l -0.023,0.004 -0.229,-0.66 -1.014,0.397 1.664,4.229 z"
         id="path109"
         inkscape:connector-curvature="0" /><path
         d="m 144.885,190.369 1.891,4.132 0.99,-0.451 -1.891,-4.134 -0.99,0.453 z m -0.809,-1.768 0.379,0.826 0.99,-0.453 -0.379,-0.825 -0.99,0.452 z"
         id="path111"
         inkscape:connector-curvature="0" /><path
         d="m 149.971,188.139 c -0.312,-0.04 -0.809,0.109 -1.484,0.45 -0.717,0.36 -1.158,0.687 -1.328,0.977 -0.17,0.292 -0.137,0.669 0.098,1.134 0.26,0.518 0.57,0.789 0.93,0.814 0.357,0.025 0.971,-0.182 1.84,-0.619 0.385,-0.193 0.664,-0.119 0.836,0.223 0.18,0.357 -0.037,0.69 -0.65,0.999 -0.596,0.3 -0.963,0.259 -1.105,-0.119 l -0.041,-0.149 -1.012,0.51 0.053,0.101 c 0.236,0.473 0.527,0.731 0.869,0.776 0.342,0.044 0.859,-0.108 1.553,-0.458 0.721,-0.363 1.174,-0.711 1.355,-1.042 0.182,-0.332 0.148,-0.745 -0.1,-1.241 -0.234,-0.463 -0.494,-0.717 -0.779,-0.762 -0.285,-0.045 -0.781,0.091 -1.492,0.406 -0.529,0.233 -0.848,0.352 -0.957,0.354 -0.111,0.003 -0.223,-0.108 -0.336,-0.33 -0.166,-0.329 0.006,-0.62 0.512,-0.877 0.354,-0.178 0.59,-0.266 0.705,-0.264 0.117,0.001 0.234,0.096 0.352,0.28 l 0.051,0.07 0.951,-0.479 c -0.233,-0.462 -0.507,-0.713 -0.821,-0.754 z"
         id="path113"
         inkscape:connector-curvature="0" /><path
         d="m 154.17,185.794 c -0.314,-0.025 -0.801,0.151 -1.459,0.525 -0.695,0.397 -1.121,0.746 -1.275,1.045 -0.152,0.3 -0.102,0.676 0.156,1.126 0.287,0.505 0.611,0.76 0.971,0.766 0.359,0.007 0.961,-0.23 1.807,-0.713 0.373,-0.215 0.656,-0.154 0.846,0.179 0.197,0.347 -0.002,0.691 -0.6,1.032 -0.578,0.329 -0.947,0.309 -1.107,-0.062 l -0.051,-0.147 -0.982,0.562 0.057,0.098 c 0.262,0.46 0.564,0.704 0.908,0.73 0.344,0.026 0.854,-0.152 1.527,-0.538 0.701,-0.399 1.135,-0.77 1.301,-1.11 0.164,-0.341 0.109,-0.752 -0.166,-1.233 -0.258,-0.451 -0.529,-0.692 -0.816,-0.722 -0.287,-0.03 -0.777,0.132 -1.471,0.483 -0.514,0.262 -0.828,0.395 -0.938,0.402 -0.109,0.009 -0.227,-0.096 -0.352,-0.312 -0.182,-0.319 -0.025,-0.62 0.467,-0.9 0.344,-0.197 0.574,-0.298 0.689,-0.302 0.115,-0.004 0.238,0.083 0.365,0.263 l 0.055,0.066 0.926,-0.527 c -0.257,-0.45 -0.542,-0.687 -0.858,-0.711 z"
         id="path115"
         inkscape:connector-curvature="0" /><path
         d="m 155.26,184.881 2.398,3.859 0.926,-0.574 -2.398,-3.86 -0.926,0.575 z m -1.026,-1.652 0.479,0.771 0.926,-0.574 -0.48,-0.771 -0.925,0.574 z"
         id="path117"
         inkscape:connector-curvature="0" /><path
         d="m 160.018,183.041 c 0.193,0.064 0.451,0.337 0.777,0.816 0.385,0.57 0.578,0.963 0.582,1.18 0.002,0.217 -0.186,0.451 -0.561,0.705 -0.389,0.262 -0.68,0.355 -0.871,0.279 -0.193,-0.076 -0.482,-0.396 -0.865,-0.965 -0.336,-0.496 -0.498,-0.847 -0.486,-1.051 0.012,-0.204 0.203,-0.433 0.58,-0.687 0.369,-0.25 0.65,-0.342 0.844,-0.277 z m -2.536,0.898 c -0.064,0.387 0.172,0.977 0.705,1.767 0.557,0.821 1.029,1.277 1.42,1.364 0.389,0.088 0.969,-0.127 1.738,-0.647 0.709,-0.479 1.086,-0.923 1.131,-1.332 0.045,-0.409 -0.215,-1.031 -0.779,-1.865 -0.506,-0.749 -0.949,-1.163 -1.332,-1.243 -0.385,-0.079 -0.939,0.126 -1.666,0.618 -0.748,0.505 -1.154,0.952 -1.217,1.338 z"
         id="path119"
         inkscape:connector-curvature="0" /><path
         d="m 163.951,184.558 0.867,-0.657 -1.627,-2.148 c -0.42,-0.552 -0.338,-1.05 0.246,-1.492 0.383,-0.292 0.697,-0.318 0.943,-0.078 l 0.211,0.239 0.104,0.137 1.654,2.182 0.867,-0.658 -1.869,-2.464 c -0.605,-0.799 -1.336,-0.874 -2.191,-0.224 -0.59,0.445 -0.803,0.951 -0.641,1.516 l -0.021,0.011 -0.428,-0.636 -0.859,0.652 2.744,3.62 z"
         id="path121"
         inkscape:connector-curvature="0" /><rect
         x="167.58501"
         y="179.989"
         transform="matrix(-0.633,-0.7741,0.7741,-0.633,134.8643,425.001)"
         width="1.169"
         height="1.089"
         id="rect123" /><path
         d="m 169.541,174.403 c -0.312,0.04 -0.754,0.312 -1.32,0.813 -0.602,0.53 -0.947,0.958 -1.035,1.283 -0.09,0.325 0.037,0.682 0.381,1.07 0.385,0.435 0.754,0.618 1.105,0.552 0.354,-0.067 0.895,-0.424 1.623,-1.066 0.324,-0.286 0.611,-0.285 0.867,0.002 0.264,0.3 0.139,0.677 -0.377,1.132 -0.498,0.441 -0.865,0.496 -1.098,0.165 l -0.08,-0.133 -0.848,0.749 0.076,0.086 c 0.35,0.396 0.697,0.571 1.037,0.528 0.342,-0.044 0.805,-0.322 1.387,-0.837 0.605,-0.536 0.953,-0.987 1.045,-1.354 0.094,-0.367 -0.045,-0.759 -0.412,-1.175 -0.344,-0.389 -0.66,-0.568 -0.947,-0.539 -0.287,0.029 -0.732,0.286 -1.34,0.772 -0.451,0.361 -0.73,0.557 -0.836,0.587 -0.106,0.03 -0.242,-0.047 -0.408,-0.235 -0.244,-0.275 -0.152,-0.602 0.271,-0.978 0.297,-0.263 0.502,-0.406 0.615,-0.435 0.113,-0.027 0.25,0.032 0.412,0.181 l 0.066,0.055 0.799,-0.704 c -0.342,-0.385 -0.669,-0.559 -0.983,-0.519 z"
         id="path125"
         inkscape:connector-curvature="0" /><path
         d="m 174.523,175.652 -2.576,-2.679 0.814,-0.784 -0.572,-0.597 -0.816,0.784 -0.336,-0.35 c -0.33,-0.343 -0.322,-0.68 0.023,-1.011 0.076,-0.073 0.18,-0.147 0.311,-0.226 l -0.59,-0.614 c -0.148,0.13 -0.264,0.232 -0.342,0.31 -0.471,0.452 -0.721,0.845 -0.746,1.176 -0.027,0.331 0.16,0.704 0.561,1.12 l 0.334,0.351 -0.461,0.443 0.572,0.597 0.463,-0.445 2.576,2.68 0.785,-0.755 z"
         id="path127"
         inkscape:connector-curvature="0" /><rect
         x="175.17101"
         y="173.062"
         transform="matrix(-0.7121,-0.7021,0.7021,-0.7121,179.026,420.6252)"
         width="1.168"
         height="1.0880001"
         id="rect129" /><path
         d="m 178.512,170.112 c 0.012,0.155 -0.109,0.37 -0.361,0.646 -0.322,0.351 -0.584,0.516 -0.787,0.496 -0.203,-0.021 -0.537,-0.245 -1.004,-0.673 -0.484,-0.442 -0.752,-0.762 -0.801,-0.958 -0.049,-0.195 0.074,-0.453 0.367,-0.771 0.412,-0.452 0.814,-0.499 1.205,-0.142 l 0.729,-0.796 c -0.475,-0.435 -0.891,-0.627 -1.248,-0.576 -0.357,0.051 -0.803,0.365 -1.332,0.946 -0.551,0.601 -0.805,1.11 -0.76,1.533 0.041,0.422 0.4,0.941 1.074,1.558 0.688,0.632 1.242,0.947 1.66,0.948 0.42,0.001 0.916,-0.314 1.494,-0.946 0.789,-0.859 0.996,-1.551 0.623,-2.073 l -0.463,-0.514 -0.117,-0.105 -0.73,0.799 c 0.289,0.265 0.439,0.474 0.451,0.628 z"
         id="path131"
         inkscape:connector-curvature="0" /><path
         d="m 181.551,165.973 c 0.346,0.283 0.307,0.682 -0.113,1.192 -0.258,0.313 -0.463,0.49 -0.615,0.529 -0.15,0.04 -0.34,-0.034 -0.568,-0.222 -0.328,-0.271 -0.297,-0.643 0.096,-1.117 0.446,-0.544 0.848,-0.672 1.2,-0.382 z m -2.549,-0.862 c 0.244,-0.295 0.451,-0.455 0.617,-0.477 0.168,-0.022 0.389,0.081 0.664,0.305 l 0.568,0.47 -0.012,0.014 c -0.369,-0.095 -0.793,0.147 -1.271,0.728 -0.715,0.868 -0.707,1.604 0.021,2.203 0.721,0.595 1.432,0.468 2.131,-0.381 0.482,-0.585 0.613,-1.102 0.396,-1.552 l 0.021,-0.019 0.449,0.436 0.691,-0.841 -2.293,-1.888 c -0.49,-0.403 -0.912,-0.565 -1.27,-0.485 -0.357,0.079 -0.797,0.435 -1.316,1.066 -0.477,0.579 -0.727,1.025 -0.744,1.338 -0.02,0.312 0.182,0.643 0.602,0.988 l 0.707,-0.858 c -0.326,-0.269 -0.313,-0.619 0.039,-1.047 z"
         id="path133"
         inkscape:connector-curvature="0" /><rect
         x="183.27699"
         y="163.715"
         transform="matrix(-0.7956,-0.6059,0.6059,-0.7956,230.6156,406.3347)"
         width="1.169"
         height="1.089"
         id="rect135" /><path
         d="m 183.355,158.216 2.031,1.427 c 0.684,0.48 0.826,1.006 0.426,1.577 -0.195,0.276 -0.373,0.425 -0.535,0.442 -0.162,0.019 -0.4,-0.083 -0.717,-0.307 l -2.283,-1.604 -0.627,0.892 2.498,1.754 c 0.842,0.591 1.561,0.467 2.152,-0.376 0.438,-0.625 0.49,-1.186 0.156,-1.68 l 0.016,-0.012 0.602,0.497 0.625,-0.89 -3.717,-2.612 -0.627,0.892 z"
         id="path137"
         inkscape:connector-curvature="0" /><path
         d="m 186.553,153.664 c -0.289,0.127 -0.635,0.512 -1.037,1.153 -0.426,0.68 -0.637,1.188 -0.629,1.524 0.006,0.336 0.229,0.643 0.668,0.919 0.492,0.308 0.898,0.379 1.219,0.215 0.318,-0.165 0.736,-0.659 1.254,-1.482 0.229,-0.366 0.504,-0.447 0.83,-0.244 0.338,0.213 0.326,0.609 -0.039,1.191 -0.354,0.565 -0.689,0.722 -1.006,0.471 l -0.115,-0.105 -0.6,0.959 0.098,0.061 c 0.447,0.28 0.828,0.352 1.145,0.213 0.314,-0.139 0.68,-0.538 1.09,-1.196 0.43,-0.686 0.637,-1.216 0.621,-1.595 -0.016,-0.378 -0.258,-0.714 -0.729,-1.009 -0.441,-0.274 -0.795,-0.357 -1.061,-0.249 -0.268,0.109 -0.623,0.483 -1.066,1.122 -0.332,0.474 -0.543,0.74 -0.637,0.8 -0.094,0.059 -0.246,0.022 -0.457,-0.11 -0.312,-0.195 -0.318,-0.533 -0.016,-1.015 0.209,-0.336 0.365,-0.533 0.465,-0.592 0.1,-0.059 0.25,-0.039 0.445,0.059 l 0.082,0.032 0.564,-0.901 c -0.437,-0.276 -0.8,-0.349 -1.089,-0.221 z"
         id="path139"
         inkscape:connector-curvature="0" /></g></g></svg>